<?xml version="1.0" standalone="no"?>
<!DOCTYPE svg PUBLIC "-//W3C//DTD SVG 1.1//EN" "http://www.w3.org/Graphics/SVG/1.1/DTD/svg11.dtd" >
<svg>
<metadata>
Created by FontForge 20120731 at Sat Dec  6 23:30:21 2014
 By Orthosie Webhosting
Copyright (C) 1993; Type Market Ltd. Moscow, 119136, Box 20; phone:(095)1427712; Created by A.Kustov
</metadata>
<defs>
<font id="HeliosBold" horiz-adv-x="2302" >
  <font-face 
    font-family="HeliosBold"
    font-weight="400"
    font-stretch="normal"
    units-per-em="4096"
    panose-1="2 11 114 0 0 0 0 0 0 0"
    ascent="3276"
    descent="-820"
    x-height="2204"
    cap-height="2974"
    bbox="-139 -897 4620 3838"
    underline-thickness="50"
    underline-position="-75"
    unicode-range="U+0020-2219"
  />
<missing-glyph horiz-adv-x="3072" 
d="M512 0v2560h2048v-2560h-2048zM2494 66v2428h-1916v-2428h1916z" />
    <glyph glyph-name=".notdef" horiz-adv-x="3072" 
d="M512 0v2560h2048v-2560h-2048zM2494 66v2428h-1916v-2428h1916z" />
    <glyph glyph-name=".null" horiz-adv-x="0" 
 />
    <glyph glyph-name="nonmarkingreturn" horiz-adv-x="1151" 
 />
    <glyph glyph-name="space" unicode=" " horiz-adv-x="1151" 
 />
    <glyph glyph-name="exclam" unicode="!" horiz-adv-x="1380" 
d="M995 586v-586h-606v586h606zM1012 2216l-168 -1393h-303l-168 1393v758h639v-758z" />
    <glyph glyph-name="quotedbl" unicode="&#x22;" horiz-adv-x="1958" 
d="M1147 1851v1123h405v-1123h-405zM406 1851v1123h405v-1123h-405z" />
    <glyph glyph-name="numbersign" unicode="#" 
d="M2105 1196l-49 -373h-401l-115 -823h-389l115 823h-402l-114 -823h-390l115 823h-401l53 373h401l70 496h-401l49 372h401l115 820h389l-115 -820h406l110 820h390l-111 -820h393l-49 -372h-397l-74 -496h401zM1389 1692h-402l-69 -496h397z" />
    <glyph glyph-name="dollar" unicode="$" 
d="M2118 2073h-533q0 258 -106 356q-78 70 -234 70v-775q291 -90 451 -168q155 -77 241 -159q111 -107 168 -246q58 -143 58 -332q0 -340 -201 -586q-250 -303 -717 -303v-405h-188v405q-492 0 -709 242q-221 238 -221 717h541q20 -250 82 -348q81 -131 307 -172v868
q-406 106 -586 242q-283 213 -283 598q0 364 209 598q234 262 660 262v266h188v-266q361 -37 553 -168q320 -213 320 -696zM1057 1782v717q-168 0 -266 -111q-82 -94 -82 -213q0 -180 110 -283q82 -77 238 -110zM1245 1167v-798q135 0 234 82q131 110 131 323
q0 160 -119 266q-90 82 -246 127z" />
    <glyph glyph-name="percent" unicode="%" horiz-adv-x="3674" 
d="M2056 700q0 316 221 537q217 217 529 217q307 0 532 -221q221 -225 221 -533q0 -311 -221 -532t-532 -221q-312 0 -529 221q-221 217 -221 532zM2482 700q0 -135 98 -229q95 -98 226 -98q135 0 233 98q94 94 94 229q0 140 -94 234t-233 94q-135 0 -230 -94
q-94 -94 -94 -234zM115 2183q0 311 221 532.5t532 221.5q308 0 529 -221.5t221 -532.5t-221 -532t-529 -221q-311 0 -532 217t-221 536zM541 2183q0 -139 94 -233.5t233 -94.5q136 0 230 94.5t94 233.5q0 135 -94 234q-99 94 -230 94q-135 0 -229 -94q-98 -99 -98 -234z
M2802 2937l-1647 -3019h-303l1647 3019h303z" />
    <glyph glyph-name="ampersand" unicode="&#x26;" horiz-adv-x="2986" 
d="M1606 2286q0 118 -66 184q-70 61 -180 61q-103 0 -172.5 -65.5t-69.5 -175.5q0 -136 213 -373q127 78 201 168t74 201zM2363 647l537 -647h-696l-205 250q-152 -152 -320 -230q-225 -102 -528 -102q-414 0 -668 250q-258 246 -258 594q0 254 107 434q143 238 524 471
q-119 131 -180 262q-86 176 -86 357q0 307 217 495q217 189 573 189q279 0 484 -164q241 -193 241 -525q0 -208 -118 -385q-123 -176 -373 -323l422 -520q57 86 98 208.5t57 278.5h512q-28 -299 -102 -483q-74 -189 -238 -410zM1700 614l-545 684q-164 -118 -217 -172
q-135 -131 -135 -327q0 -127 86 -238q123 -155 352 -155q98 0 201 40q135 54 258 168z" />
    <glyph glyph-name="quotesingle" unicode="'" horiz-adv-x="983" 
d="M291 1851v1123h405v-1123h-405z" />
    <glyph glyph-name="parenleft" unicode="(" horiz-adv-x="1380" 
d="M1298 -860h-426q-327 438 -499 852q-226 536 -226 1089q0 557 218 1086q176 426 507 872h426q-274 -471 -397 -860q-160 -500 -160 -1098q0 -405 74 -741q74 -340 205 -651q98 -234 278 -549z" />
    <glyph glyph-name="parenright" unicode=")" horiz-adv-x="1380" 
d="M82 3039h426q328 -438 500 -852q225 -536 225 -1089q0 -557 -217 -1086q-176 -426 -508 -872h-426q274 471 397 860q160 500 160 1098q0 405 -74 745q-73 336 -205 647q-98 234 -278 549z" />
    <glyph glyph-name="asterisk" unicode="*" horiz-adv-x="1610" 
d="M1397 2621l102 -303l-434 -131l283 -401l-258 -184l-283 376l-287 -376l-258 184l279 401l-430 131l98 303l422 -143v496h352v-492z" />
    <glyph glyph-name="plus" unicode="+" horiz-adv-x="2417" 
d="M975 1278v819h463v-819h815v-463h-815v-815h-463v815h-811v463h811z" />
    <glyph glyph-name="comma" unicode="," horiz-adv-x="1147" 
d="M881 602v-520q0 -356 -172 -545q-148 -160 -443 -233l-4 221q160 53 234 127q114 115 114 348h-348v602h619z" />
    <glyph glyph-name="hyphen" unicode="-" horiz-adv-x="2417" 
d="M2249 815h-2085v463h2085v-463z" />
    <glyph glyph-name="period" unicode="." horiz-adv-x="1147" 
d="M881 602v-602h-619v602h619z" />
    <glyph glyph-name="slash" unicode="/" horiz-adv-x="1147" 
d="M1286 3052l-942 -3130h-483l942 3130h483z" />
    <glyph glyph-name="zero" unicode="0" 
d="M135 1430q0 774 250 1142q250 365 774 365q520 0 766 -365q242 -368 242 -1142q0 -775 -246 -1143q-250 -369 -770 -369t-766 373q-250 368 -250 1139zM729 1430q0 -582 90 -816q86 -233 332 -233t336 233q86 230 86 816q0 581 -86 815q-90 229 -336 229t-332 -229
q-90 -230 -90 -815z" />
    <glyph glyph-name="one" unicode="1" horiz-adv-x="2298" 
d="M283 2023v406h86q376 0 565 168q151 135 151 340h476v-2937h-578v2023h-700z" />
    <glyph glyph-name="two" unicode="2" 
d="M705 1901h-562q0 479 234 745q258 291 725 291q434 0 713 -238q294 -254 294 -688q0 -262 -114 -471q-135 -250 -496 -483q-581 -381 -663 -545h1273v-512h-1998q0 328 98 537q147 315 582 630q344 250 466 357q275 241 275 508q0 168 -94 282q-111 135 -312 135
q-266 0 -360 -192q-61 -123 -61 -356z" />
    <glyph glyph-name="three" unicode="3" 
d="M881 1286v414h94q201 0 307 53q184 94 184 344q0 131 -61 225q-98 152 -307 152q-254 0 -348 -201q-50 -106 -50 -282h-536q0 434 233 680q254 266 738 266q356 0 602 -176q307 -217 307 -643q0 -209 -111 -365q-90 -127 -241 -197q209 -73 327 -253q115 -185 115 -435
q0 -417 -279 -684q-278 -266 -720 -266q-369 0 -615 148q-405 241 -405 835h565v-20q0 -176 65 -299q107 -201 361 -201q184 0 311 127q123 123 123 360q0 267 -225 361q-139 57 -434 57z" />
    <glyph glyph-name="four" unicode="4" 
d="M541 1102h729q0 540 4 803q4 258 8 458zM2175 1102v-451h-328v-651h-577v651h-1155v500l1077 1786h655v-1835h328z" />
    <glyph glyph-name="five" unicode="5" 
d="M823 2396l-102 -635q106 74 192 107q144 53 332 53q340 0 590 -217q299 -262 299 -729q0 -397 -205 -676q-282 -381 -860 -381q-381 0 -647 209q-307 242 -307 659h577q21 -192 119 -299q98 -106 287 -106q205 0 323 156q119 155 119 397q0 221 -98 360
q-115 164 -332 164q-111 0 -180 -24q-135 -50 -209 -185l-516 25l201 1610h1613v-488h-1196z" />
    <glyph glyph-name="six" unicode="6" 
d="M2093 2191h-573q-13 127 -99 205t-241 78q-258 0 -381 -262q-103 -217 -103 -549l9 -8q98 135 237 188t311 53q426 0 676 -286q221 -254 221 -619q0 -479 -262 -774q-266 -299 -696 -299q-606 0 -864 463q-197 352 -197 1016q0 397 53 647q82 389 299 614
q271 279 738 279q372 0 622 -217t250 -529zM1573 942q0 254 -143 385q-115 107 -279 107q-188 0 -303 -111q-139 -135 -139 -393q0 -242 127 -393q122 -156 331 -156q172 0 291 139q115 139 115 422z" />
    <glyph glyph-name="seven" unicode="7" 
d="M2187 2884v-447q-233 -250 -401 -483q-287 -398 -455 -828q-217 -557 -217 -1126h-598q0 541 213 1077q164 414 451 824q180 253 385 471h-1463v512h2085z" />
    <glyph glyph-name="eight" unicode="8" 
d="M1155 1745q168 0 266 102q95 99 95 262q0 164 -95 267q-98 98 -245 98q-189 0 -291 -98q-107 -103 -107 -267q0 -143 99 -254q98 -110 278 -110zM2167 872q0 -352 -213 -614q-279 -340 -803 -340q-520 0 -791 295q-225 246 -225 602q0 270 115 454.5t332 286.5
q-357 181 -357 578q0 369 258 586t656 217q434 0 692 -230q237 -213 237 -536q0 -201 -81 -348q-82 -152 -258 -246q225 -111 323 -258q115 -172 115 -447zM1573 848q0 188 -90 307q-115 152 -340 152q-176 0 -287 -107q-127 -123 -127 -348q0 -213 115 -340
q110 -131 311 -131q209 0 324 156q94 127 94 311z" />
    <glyph glyph-name="nine" unicode="9" 
d="M705 1962q0 -307 131 -434q102 -103 303 -103q168 0 286 115q140 135 140 377q0 258 -111 401q-111 144 -332 144q-209 0 -311 -140q-106 -143 -106 -360zM184 676h574q24 -148 110 -221.5t230 -73.5q205 0 332 176q151 209 151 643l-8 8q-90 -135 -254 -196
q-131 -49 -303 -49q-410 0 -647 266q-242 266 -242 651q0 520 283 799q262 258 712 258q463 0 721 -299q197 -225 271 -635q45 -246 45 -578q0 -790 -332 -1179q-279 -328 -733 -328q-381 0 -627 205q-246 201 -283 553z" />
    <glyph glyph-name="colon" unicode=":" horiz-adv-x="1380" 
d="M999 602v-602h-618v602h618zM999 2118v-602h-618v602h618z" />
    <glyph glyph-name="semicolon" unicode=";" horiz-adv-x="1380" 
d="M999 602v-516q0 -360 -172 -549q-143 -160 -442 -229l-4 217q160 53 233 127q115 115 115 348h-348v602h618zM999 2118v-602h-618v602h618z" />
    <glyph glyph-name="less" unicode="&#x3c;" horiz-adv-x="2417" 
d="M2261 414v-447l-2101 901v365l2101 897v-447l-1503 -634z" />
    <glyph glyph-name="equal" unicode="=" horiz-adv-x="2417" 
d="M2249 1737v-463h-2085v463h2085zM2249 823v-463h-2085v463h2085z" />
    <glyph glyph-name="greater" unicode="&#x3e;" horiz-adv-x="2417" 
d="M156 414l1503 635l-1503 634v447l2101 -897v-365l-2101 -901v447z" />
    <glyph glyph-name="question" unicode="?" horiz-adv-x="2527" 
d="M1544 860h-545q0 324 66 467q82 180 356 373q123 86 193 188q65 103 65 221q0 218 -135 324q-110 86 -266 86q-188 0 -303 -102.5t-144 -372.5l-581 -4q0 495 323 753q271 213 668 213q500 0 787 -241q270 -225 270 -635q0 -242 -123 -418q-107 -156 -377 -344
q-143 -102 -192 -188q-62 -111 -62 -320zM1585 582v-582h-602v582h602z" />
    <glyph glyph-name="at" unicode="@" horiz-adv-x="4035" 
d="M2404 1556q0 156 -90 254q-90 99 -241 99q-205 0 -344 -172q-140 -176 -140 -385q0 -168 86 -267q82 -102 238 -102q209 0 352 180q139 176 139 393zM2527 2040l53 221h365q-131 -578 -197 -885q-69 -311 -69 -344q0 -86 61 -86q176 0 324 201q143 201 143 524
q0 496 -315 774q-316 275 -815 275q-525 0 -852 -353q-328 -352 -328 -888q0 -549 348 -885q344 -340 889 -340q254 0 475 90q221 86 393 246h369q-213 -316 -545 -492t-717 -176q-679 0 -1151 447q-471 446 -471 1118q0 659 471 1114q467 451 1127 451q586 0 1012 -349
q446 -368 446 -929q0 -586 -418 -934q-323 -271 -639 -271q-94 0 -164 58q-69 57 -69 159q-99 -94 -213.5 -155.5t-233.5 -61.5q-270 0 -467 213q-196 213 -196 508q0 406 250 713q245 307 635 307q163 0 290 -61q123 -66 209 -209z" />
    <glyph glyph-name="A" unicode="A" horiz-adv-x="2990" 
d="M946 614l-209 -614h-651l1057 2974h717l1044 -2974h-672l-192 614h-1094zM1110 1126h795l-406 1176z" />
    <glyph glyph-name="B" unicode="B" horiz-adv-x="2990" 
d="M295 0v2974h1466q488 0 725 -262q185 -205 185 -496q0 -279 -131 -442q-78 -95 -230 -172q254 -95 365 -295q90 -164 90 -418q0 -320 -185 -537q-294 -352 -1007 -352h-1278zM913 1311v-799h754q234 0 356 106q123 107 123 332q0 176 -131 271q-131 90 -315 90h-787z
M913 2462v-652h725q201 0 312 74q127 86 127 258q0 176 -115 250q-115 70 -340 70h-709z" />
    <glyph glyph-name="C" unicode="C" horiz-adv-x="2990" 
d="M2830 1999h-618q-58 213 -156 323q-172 193 -504 193q-286 0 -479 -205q-254 -270 -254 -840q0 -438 168 -704q193 -307 565 -307q258 0 435 147q172 144 225 414h618q-94 -508 -409 -791q-340 -307 -881 -307q-614 0 -975 393q-381 414 -381 1168q0 753 394 1175
q368 394 970 394q611 0 975 -361q307 -307 307 -692z" />
    <glyph glyph-name="D" unicode="D" horiz-adv-x="2986" 
d="M315 0v2974h1311q672 0 983 -496q230 -364 230 -922q0 -602 -250 -1015q-324 -541 -987 -541h-1287zM922 2462v-1950h606q348 0 524 315q152 271 152 684q0 578 -242 803q-160 148 -442 148h-598z" />
    <glyph glyph-name="E" unicode="E" horiz-adv-x="2757" 
d="M2499 2974v-525h-1577v-626h1445v-525h-1445v-774h1642v-524h-2261v2974h2196z" />
    <glyph glyph-name="F" unicode="F" horiz-adv-x="2527" 
d="M930 1249v-1249h-619v2974h2118v-525h-1499v-675h1311v-525h-1311z" />
    <glyph glyph-name="G" unicode="G" horiz-adv-x="3219" 
d="M1708 1102v500h1241v-1602h-414l-61 373q-160 -197 -315 -295q-250 -156 -611 -156q-573 0 -950 385q-414 422 -414 1172q0 663 344 1089q390 484 1098 484q623 0 995 -349q316 -295 316 -655h-619q0 131 -159 291q-201 201 -492 201q-364 0 -590 -246
q-258 -279 -258 -819q0 -562 271 -820q217 -209 589 -209q197 0 365 103q274 164 356 553h-692z" />
    <glyph glyph-name="H" unicode="H" horiz-adv-x="2990" 
d="M2073 1335h-1160v-1335h-618v2974h618v-1127h1160v1127h618v-2974h-618v1335z" />
    <glyph glyph-name="I" unicode="I" horiz-adv-x="1147" 
d="M881 2974v-2974h-619v2974h619z" />
    <glyph glyph-name="J" unicode="J" 
d="M2003 2970v-2110q0 -471 -234 -704q-233 -234 -688 -234q-643 0 -856 385q-131 238 -131 811h578q0 -393 53 -524q70 -172 303 -172q221 0 299 131q57 94 57 307v2110h619z" />
    <glyph glyph-name="K" unicode="K" horiz-adv-x="2986" 
d="M979 1008v-1008h-619v2974h619v-1209l1135 1209h802l-1212 -1217l1282 -1757h-799l-917 1307z" />
    <glyph glyph-name="L" unicode="L" horiz-adv-x="2527" 
d="M930 2974v-2450h1483v-524h-2102v2974h619z" />
    <glyph glyph-name="M" unicode="M" horiz-adv-x="3445" 
d="M3162 2974v-2974h-577v2486l-562 -2486h-610l-541 2486l-8 -2486h-577v2974h905l537 -2343l536 2343h897z" />
    <glyph glyph-name="N" unicode="N" horiz-adv-x="2990" 
d="M2130 2974h577v-2974h-622l-1208 2122l-13 -2122h-577v2974h655l1180 -2069z" />
    <glyph glyph-name="O" unicode="O" horiz-adv-x="3219" 
d="M184 1487q0 639 279 1024q217 303 598 442q270 99 549 99q282 0 540 -95q377 -139 598 -442q287 -397 287 -1028q0 -639 -278 -1024q-217 -303 -598 -443q-271 -98 -549 -98q-283 0 -541 94q-377 140 -598 443q-287 397 -287 1028zM803 1487q0 -561 274 -832
q213 -209 533 -209q319 0 528 205q279 271 279 836q0 561 -275 831q-213 209 -532 209q-320 0 -529 -205q-278 -270 -278 -835z" />
    <glyph glyph-name="P" unicode="P" horiz-adv-x="2761" 
d="M934 1073v-1073h-619v2974h1360q430 0 676 -254q242 -258 242 -697q0 -315 -172 -573q-254 -377 -774 -377h-713zM934 1585h577q275 0 385 160q78 110 78 303q0 217 -127 315q-131 99 -417 99h-496v-877z" />
    <glyph glyph-name="Q" unicode="Q" horiz-adv-x="3219" 
d="M1647 807l319 332l315 -291q66 119 103 278q33 156 33 357q0 561 -275 831q-217 213 -532 213q-316 0 -529 -209q-278 -274 -278 -835t274 -832q213 -209 533 -209q90 0 167.5 16.5t168.5 65.5zM3047 119l-323 -336l-352 336q-189 -115 -422 -164q-168 -37 -340 -37
q-283 0 -541 94q-377 140 -598 443q-287 397 -287 1028q0 643 279 1028q217 303 598 442q270 99 549 99q282 0 540 -95q373 -135 598 -446q287 -397 287 -1028q0 -344 -82 -606q-82 -267 -225 -451z" />
    <glyph glyph-name="R" unicode="R" horiz-adv-x="2986" 
d="M303 0v2974h1516q520 0 761 -324q168 -225 168 -516q0 -250 -118.5 -442.5t-335.5 -266.5q209 -90 278 -208q94 -156 94 -545q0 -312 13 -426q8 -119 123 -164v-82h-688q-37 123 -50 246q-16 123 -16 356q0 332 -70 430q-94 131 -413 131h-643v-1163h-619zM922 1663h729
q479 0 479 405q0 152 -82 254q-111 140 -356 140h-770v-799z" />
    <glyph glyph-name="S" unicode="S" horiz-adv-x="2757" 
d="M160 918h594q0 -181 110 -304q164 -180 520 -180q271 0 422 74q201 98 201 311q0 123 -90 201t-451 168q-282 69 -565 147q-283 74 -418 172q-139 99 -209 283q-69 180 -69 348q0 340 209 578q295 336 934 336q610 0 917 -345q238 -266 238 -618h-594q-21 176 -107 274
q-151 177 -499 177q-209 0 -349 -78q-172 -95 -172 -279q0 -155 111 -233q61 -45 205 -78l725 -176q368 -94 540 -238q238 -196 238 -561q0 -578 -487 -823q-299 -152 -684 -152q-721 0 -1041 357q-229 253 -229 639z" />
    <glyph glyph-name="T" unicode="T" horiz-adv-x="2527" 
d="M1573 2449v-2449h-619v2449h-897v525h2417v-525h-901z" />
    <glyph glyph-name="U" unicode="U" horiz-adv-x="2990" 
d="M2679 2974v-1925q0 -570 -312 -848q-315 -283 -892 -283q-471 0 -766 209q-394 279 -394 881v1966h619v-1934q0 -295 156 -454q139 -144 372 -144q312 0 455 143.5t143 426.5v1962h619z" />
    <glyph glyph-name="V" unicode="V" horiz-adv-x="2757" 
d="M2036 2974h643l-1008 -2974h-594l-999 2974h663l639 -2253z" />
    <glyph glyph-name="W" unicode="W" horiz-adv-x="3908" 
d="M905 0l-839 2974h663q127 -545 299 -1311q123 -545 172 -864q57 311 115 618q94 508 307 1557h659q267 -1245 328 -1540q57 -295 115 -635q33 159 69 344q37 180 131.5 585.5t290.5 1245.5h631l-835 -2974h-598q-209 999 -308 1491q-69 360 -151 827q-41 -241 -94 -512
q-107 -557 -127 -647q-123 -581 -246 -1159h-582z" />
    <glyph glyph-name="X" unicode="X" horiz-adv-x="2757" 
d="M1733 1544l966 -1544h-757l-562 1016l-598 -1016h-725l959 1520l-905 1454h741l528 -963l541 963h717z" />
    <glyph glyph-name="Y" unicode="Y" horiz-adv-x="2757" 
d="M1704 1122v-1122h-619v1122l-995 1852h705l614 -1295l586 1295h704z" />
    <glyph glyph-name="Z" unicode="Z" horiz-adv-x="2527" 
d="M2425 524v-524h-2323v528l1536 1921h-1495v525h2282v-525l-1577 -1925h1577z" />
    <glyph glyph-name="bracketleft" unicode="[" horiz-adv-x="1376" 
d="M766 2593v-3007h512v-397h-1016v3801h1016v-397h-512z" />
    <glyph glyph-name="backslash" unicode="\" horiz-adv-x="1147" 
d="M803 -78l-942 3130h483l942 -3130h-483z" />
    <glyph glyph-name="bracketright" unicode="]" horiz-adv-x="1376" 
d="M610 -414v3007h-512v397h1016v-3801h-1016v397h512z" />
    <glyph glyph-name="asciicircum" unicode="^" horiz-adv-x="2417" 
d="M709 1335h-451l746 1553h409l746 -1553h-455l-496 1090z" />
    <glyph glyph-name="underscore" unicode="_" 
d="M2302 -516h-2302v205h2302v-205z" />
    <glyph glyph-name="grave" unicode="`" horiz-adv-x="1376" 
d="M512 2499l-606 602h635l389 -602h-418z" />
    <glyph glyph-name="a" unicode="a" 
d="M2052 1622v-1192q0 -180 33 -250q33 -69 94 -90v-90h-623q-24 74 -32 131q-13 53 -21 131q-172 -176 -344 -246q-172 -73 -368 -73q-279 0 -459 147q-209 172 -209 496q0 360 307 569q283 193 721 193q176 0 258 53q78 49 78 139q0 160 -135 221q-82 37 -246 37
q-188 0 -279 -106q-61 -74 -77 -201h-557q45 459 344 639q221 131 639 131q446 0 679 -193q197 -163 197 -446zM1487 791v282q-45 -33 -131 -61q-90 -33 -271 -62q-184 -28 -270 -86q-115 -78 -115 -241q0 -140 91 -209q73 -58 180 -58q205 0 352 115q164 127 164 320z" />
    <glyph glyph-name="b" unicode="b" horiz-adv-x="2527" 
d="M1794 1085q0 291 -106 467q-127 209 -385 209q-275 0 -398 -221q-98 -176 -98 -487q0 -275 115 -439q135 -196 397 -196q250 0 377 233q98 180 98 434zM827 2974v-1057q107 143 222 221q184 123 426 123q389 0 639 -274q274 -304 274 -848q0 -500 -217 -824
q-250 -372 -709 -372q-196 0 -352 73q-184 86 -283 263l-8 -279h-569v2974h577z" />
    <glyph glyph-name="c" unicode="c" 
d="M1581 803h582q-37 -406 -332 -647q-258 -213 -672 -213q-561 0 -819 372q-197 283 -197 725q0 566 246 877q270 344 807 344q352 0 614 -164q357 -225 357 -680h-586q-33 185 -147 279q-95 78 -238 78q-246 0 -365 -218q-94 -172 -94 -421q0 -295 58 -447
q102 -270 389 -270q192 0 307 151q90 119 90 234z" />
    <glyph glyph-name="d" unicode="d" horiz-adv-x="2527" 
d="M2277 2974v-2974h-565v279q-102 -173 -274 -254q-176 -82 -369 -82q-459 0 -709 364q-221 324 -221 819q0 545 275 852q254 283 643 283q246 0 422 -119q118 -82 213 -225l8 1057h577zM1229 1761q-258 0 -385 -205q-111 -180 -111 -471q0 -249 98 -430q132 -237 381 -237
q258 0 394 192q118 172 118 443q0 311 -98 487q-123 221 -397 221z" />
    <glyph glyph-name="e" unicode="e" 
d="M1565 647h594q-107 -364 -398 -549q-250 -155 -569 -155q-508 0 -782 262q-316 299 -316 942q0 524 295 831q275 283 762 283t750 -262q282 -279 282 -836v-217h-1495q0 -209 74 -332q123 -208 430 -208q127 0 233 65q107 61 140 176zM692 1323h897q-24 246 -164 365
q-114 98 -282 98q-201 0 -312 -119q-114 -123 -139 -344z" />
    <glyph glyph-name="f" unicode="f" horiz-adv-x="1380" 
d="M938 1790v-1790h-578v1790h-319v414h319v176q0 332 168 479q164 147 480 147h299v-475h-164q-139 0 -172 -45q-33 -49 -33 -196v-86h381v-414h-381z" />
    <glyph glyph-name="g" unicode="g" horiz-adv-x="2527" 
d="M1733 2204h553v-2085q0 -438 -148 -651q-250 -365 -962 -365q-385 0 -652 156q-307 180 -307 508h627q28 -136 126.5 -181t278.5 -45q459 0 459 504v266l-8 8q-86 -155 -197 -229q-151 -102 -389 -102q-422 0 -676 278q-274 303 -274 860q0 545 274 852q254 283 643 283
q267 0 447 -139q123 -99 196 -246zM1217 1761q-193 0 -312 -139q-147 -172 -147 -528q0 -246 102 -414q123 -205 361 -205q266 0 389 205q98 164 98 434q0 283 -127 467q-127 180 -364 180z" />
    <glyph glyph-name="h" unicode="h" horiz-adv-x="2527" 
d="M2257 1524v-1524h-578v1339q0 185 -49 275q-86 160 -327 160q-201 0 -328 -132q-127 -135 -127 -380v-1262h-578v2974h578v-1057q65 143 233 237q189 107 414 107q336 0 541 -184q221 -201 221 -553z" />
    <glyph glyph-name="i" unicode="i" horiz-adv-x="1147" 
d="M283 2204h577v-2204h-577v2204zM860 2998v-536h-577v536h577z" />
    <glyph glyph-name="j" unicode="j" horiz-adv-x="1151" 
d="M864 2204v-2433q0 -410 -205 -545q-167 -111 -647 -111v463q168 0 221 37q54 37 54 168v2421h577zM864 2998v-536h-577v536h577z" />
    <glyph glyph-name="k" unicode="k" horiz-adv-x="2298" 
d="M864 696v-696h-577v2974h577v-1606l729 836h709l-774 -852l794 -1352h-692l-524 946z" />
    <glyph glyph-name="l" unicode="l" horiz-adv-x="1147" 
d="M860 2974v-2974h-577v2974h577z" />
    <glyph glyph-name="m" unicode="m" horiz-adv-x="3674" 
d="M3412 1524v-1524h-578v1339q0 226 -86 332q-86 103 -225 103q-209 0 -303 -119q-94 -123 -94 -336v-1319h-578v1323q0 184 -61 295q-86 156 -287 156q-192 0 -274 -111q-86 -111 -86 -311v-1352h-578v2204h557v-324q90 160 197 242q176 139 434 139q229 0 369 -86
q123 -74 245 -266q90 139 185 213q176 139 401 139q336 0 541 -184q221 -201 221 -553z" />
    <glyph glyph-name="n" unicode="n" horiz-adv-x="2527" 
d="M2257 1524v-1524h-578v1339q0 185 -49 275q-86 160 -327 160q-201 0 -328 -132q-127 -135 -127 -380v-1262h-578v2204h553v-324q103 160 209 238q193 143 463 143q336 0 541 -184q221 -201 221 -553z" />
    <glyph glyph-name="o" unicode="o" horiz-adv-x="2527" 
d="M1266 2261q479 0 782 -279q340 -311 340 -876t-340 -881q-303 -282 -782 -282q-480 0 -783 278q-344 316 -344 881t340 876q307 283 787 283zM1794 1102q0 278 -94 442q-131 230 -434 230t-435 -226q-98 -168 -98 -442q0 -365 164 -537q131 -139 369 -139q299 0 430 229
q98 172 98 443z" />
    <glyph glyph-name="p" unicode="p" horiz-adv-x="2527" 
d="M811 1053q0 -271 115 -439q135 -196 393 -196q250 0 377 233q98 180 98 434q0 291 -106 467q-127 209 -385 209q-271 0 -394 -221q-98 -180 -98 -487zM811 2204v-320q119 176 225 254q172 123 439 123q389 0 639 -283q274 -311 274 -860q0 -495 -217 -815
q-246 -360 -709 -360q-266 0 -434 123q-98 73 -184 217l-13 4v-1143h-577v3060h557z" />
    <glyph glyph-name="q" unicode="q" horiz-adv-x="2527" 
d="M1729 2204h552v-3060h-577v1130q-188 -331 -631 -331q-471 0 -725 381q-209 311 -209 733q0 504 226 831q258 373 741 373q246 0 418 -139q106 -86 196 -246zM1221 1761q-201 0 -328 -139q-160 -176 -160 -557q0 -303 123 -467q123 -168 377 -168q217 0 352 168
q131 168 131 492q0 393 -200 561q-132 110 -295 110z" />
    <glyph glyph-name="r" unicode="r" horiz-adv-x="1610" 
d="M262 0v2204h557v-381q131 225 217 303q152 135 394 135l114 -8v-590l-168 12q-307 0 -438 -168q-98 -127 -98 -352v-1155h-578z" />
    <glyph glyph-name="s" unicode="s" 
d="M2081 1532h-565q-25 139 -82 197q-95 94 -308 94q-208 0 -295 -74q-61 -53 -61 -143q0 -131 356 -209q529 -115 660 -176q360 -168 360 -521q0 -421 -352 -618q-250 -139 -610 -139q-439 0 -717 159q-340 197 -340 603h594q0 -148 110 -234q111 -90 369 -90q201 0 295 82
q74 65 74 147q0 140 -352 217q-525 115 -656 177q-356 167 -356 520q0 291 184 487q238 250 705 250q413 0 655 -131q332 -180 332 -598z" />
    <glyph glyph-name="t" unicode="t" horiz-adv-x="1380" 
d="M918 2793v-593h360v-414h-360v-1196q0 -107 40 -139q37 -37 201 -37l119 8v-434l-270 -13q-402 0 -549 127q-119 103 -119 349v1335h-295v414h295v593h578z" />
    <glyph glyph-name="u" unicode="u" horiz-adv-x="2527" 
d="M2253 2204v-2204h-553v311q-107 -176 -279 -270q-172 -98 -401 -98q-344 0 -537 192q-209 209 -209 619v1450h578v-1368q0 -230 119 -328q94 -78 258 -78q172 0 291 102q155 136 155 402v1270h578z" />
    <glyph glyph-name="v" unicode="v" 
d="M2249 2204l-795 -2204h-610l-791 2204h619l467 -1626l491 1626h619z" />
    <glyph glyph-name="w" unicode="w" horiz-adv-x="3219" 
d="M3183 2204l-635 -2204h-594l-344 1610l-353 -1610h-593l-623 2204h618l345 -1586l315 1586h586l331 -1586l349 1586h598z" />
    <glyph glyph-name="x" unicode="x" 
d="M1491 1122l750 -1122h-717l-381 664l-381 -664h-701l750 1122l-721 1082h705l372 -643l365 643h684z" />
    <glyph glyph-name="y" unicode="y" 
d="M1618 2204h614l-757 -2163q-201 -569 -332 -729q-164 -197 -520 -197l-263 8v463l111 -8q180 0 250 49q94 70 131 283l-811 2294h647l471 -1622z" />
    <glyph glyph-name="z" unicode="z" horiz-adv-x="2064" 
d="M1942 1729l-1143 -1266h1188v-463h-1905v451l1159 1290h-1081v463h1782v-475z" />
    <glyph glyph-name="braceleft" unicode="{" horiz-adv-x="1610" 
d="M1511 -446v-365h-344q-225 0 -389 135q-192 160 -192 434v828q0 168 -148 254q-106 61 -241 61v381q135 0 237 57q152 82 152 254v828q0 270 192 430q168 139 389 139h344v-364h-188q-139 0 -184 -74q-49 -78 -49 -193v-811q0 -225 -185 -352q-131 -90 -287 -102
q250 -37 361 -144q111 -106 111 -295v-811q0 -123 36 -188q58 -102 197 -102h188z" />
    <glyph glyph-name="bar" unicode="|" horiz-adv-x="1155" 
d="M344 -78v3130h463v-3130h-463z" />
    <glyph glyph-name="braceright" unicode="}" horiz-adv-x="1610" 
d="M1413 1278v-377q-139 0 -242 -57q-151 -82 -151 -254v-828q0 -270 -189 -430q-167 -143 -389 -143h-344v365h189q106 0 167.5 57t61.5 217v811q0 233 184 352q123 78 291 94q-168 25 -286 107q-189 127 -189 348v811q0 127 -33 184q-53 91 -196 91h-189v364h344
q222 0 385 -135q193 -160 193 -430v-828q0 -163 151 -254q111 -65 242 -65z" />
    <glyph glyph-name="asciitilde" unicode="~" horiz-adv-x="2417" 
d="M2015 1421l148 -372q-127 -177 -205 -242q-139 -115 -311 -115q-127 0 -537 193q-201 94 -360 94q-123 0 -218 -98q-69 -74 -131 -205l-147 373q82 159 184 241q140 115 332 115q148 0 356 -90q459 -197 525 -197q110 0 209 99q61 61 155 204z" />
    <glyph glyph-name="nonbreakingspace" unicode="&#xa0;" horiz-adv-x="2048" 
 />
    <glyph glyph-name="exclamdown" unicode="&#xa1;" horiz-adv-x="2900" 
d="M2159 2974h700l-1094 -2515q-139 -320 -315 -439q-143 -98 -385 -98q-234 0 -381 37v528q107 -49 242 -49q123 0 184 45q57 41 135 189l-1208 2302h700l803 -1663zM1122 3838h-274q0 -274 217 -455q176 -147 459 -147q360 0 544 237q132 172 132 365h-275
q-24 -127 -78 -184q-94 -103 -323 -103q-226 0 -324 103q-53 57 -78 184z" />
    <glyph glyph-name="cent" unicode="&#xa2;" 
d="M1618 2204h614l-757 -2163q-201 -569 -332 -729q-164 -197 -520 -197l-263 8v463l111 -8q180 0 250 49q94 70 131 283l-811 2294h647l471 -1622zM1647 3105h270q-21 -226 -139 -373q-193 -233 -598 -233q-361 0 -537 237q-123 168 -123 369h275q24 -123 82 -185
q102 -106 327 -106q189 0 275 41q139 65 168 250z" />
    <glyph glyph-name="sterling" unicode="&#xa3;" 
d="M1556 1581v-250h-491q12 -74 16 -110.5t4 -110.5q0 -192 -114 -369q-115 -180 -307 -311l8 -12q266 110 467 110q127 0 254 -32q127 -37 258 -74q82 0 204 49q123 45 213 102l173 -450q-136 -78 -291 -131q-156 -58 -340 -58q-144 0 -418 86q-279 82 -385 82
q-66 0 -131 -16q-70 -16 -320 -131l-225 401q98 33 258 201q205 213 205 406q0 81 -29 192q-33 107 -69 176h-381v250h241q-102 221 -135 332q-33 106 -33 254q0 282 213 512q275 295 775 295q401 0 659 -193q336 -250 336 -766h-541q-37 258 -106 352q-103 144 -353 144
q-213 0 -323 -144q-82 -106 -82 -237q0 -70 29 -148q24 -81 168 -401h593z" />
    <glyph glyph-name="currency" unicode="&#xa4;" 
d="M1151 1012q188 0 311 135q119 131 119 332q0 196 -119 327t-311 131q-188 0 -303 -127q-119 -131 -119 -331q0 -201 119 -332q115 -135 303 -135zM-12 590l405 405q-61 103 -94 222q-33 114 -33 262q0 131 37 262q37 127 90 213l-405 405l274 275l406 -406q102 62 225 99
q119 36 258 36t262 -32q123 -37 221 -103l406 406l274 -275l-405 -405q61 -94 98 -213q37 -123 37 -262q0 -140 -33 -262q-37 -123 -102 -222l405 -405l-274 -275l-406 406q-98 -66 -217 -98q-119 -37 -266 -37q-135 0 -254 37q-123 32 -229 98l-406 -406z" />
    <glyph glyph-name="yen" unicode="&#xa5;" 
d="M2273 1675v-250h-684l-164 -307h848v-250h-848v-868h-524v868h-840v250h840l-164 307h-676v250h545l-643 1209h623l594 -1213l569 1213h590l-623 -1209h557z" />
    <glyph glyph-name="brokenbar" unicode="&#xa6;" horiz-adv-x="1155" 
d="M344 -78v1200h463v-1200h-463zM344 1851v1201h463v-1201h-463z" />
    <glyph glyph-name="section" unicode="&#xa7;" 
d="M995 2118l668 -332q242 -123 352 -250q144 -168 144 -426q0 -111 -86 -262q-115 -205 -308 -291q136 -111 197 -246q61 -139 61 -286q0 -373 -274 -590q-250 -197 -619 -197q-479 0 -708 311q-160 218 -160 463h545q20 -188 127 -270q86 -66 233 -66q164 0 246 115
q57 82 57 180q0 99 -53 160q-57 57 -192 123l-631 324q-242 118 -336 249q-115 156 -115 414q0 180 111 324q94 123 270 225q-86 78 -139 180q-74 139 -74 299q0 303 213 512q230 225 615 225q348 0 569 -155q274 -193 274 -598h-524q0 147 -82 233q-86 82 -241 82
q-136 0 -217.5 -69.5t-81.5 -159.5q0 -70 36 -123q33 -53 123 -98zM1413 1278l-606 307q-86 -29 -131 -106.5t-45 -130.5q0 -91 49 -152t139 -106l651 -349q177 99 177 275q0 86 -62 147q-65 62 -172 115z" />
    <glyph glyph-name="dieresis" unicode="&#xa8;" horiz-adv-x="2757" 
d="M2499 2974v-525h-1577v-626h1445v-525h-1445v-770h1646v-528h-2265v2974h2196zM1237 3789v-479h-524v479h524zM2040 3789v-479h-520v479h520z" />
    <glyph glyph-name="copyright" unicode="&#xa9;" horiz-adv-x="3052" 
d="M3101 1491q0 -713 -475 -1155q-447 -414 -1098 -414t-1098 414q-475 442 -475 1155t475 1151q442 410 1098 410q651 0 1098 -410q475 -438 475 -1151zM1528 2691q-475 0 -799 -332q-323 -331 -323 -868q0 -533 323 -868q324 -340 795 -340q467 0 798 340q328 335 328 868
q0 528 -328 864q-327 336 -794 336zM1958 1253h373q-50 -303 -254.5 -475t-487.5 -172q-385 0 -622.5 254t-237.5 643q0 393 229 643q230 250 623 250q291 0 487 -160q197 -159 246 -471h-356q-25 131 -127 201q-107 70 -250 70q-205 0 -315 -140q-111 -139 -111 -385
q0 -237 123 -389q119 -155 311 -155q160 0 258 73q99 70 111 213z" />
    <glyph glyph-name="ordfeminine" unicode="&#xaa;" horiz-adv-x="2990" 
d="M1667 1823h-836q74 372 295 557q177 147 406 147q332 0 504 -196q102 -115 159 -332h619q0 381 -307 688q-365 365 -975 365q-602 0 -971 -394q-397 -422 -397 -1175q0 -750 381 -1164q364 -397 979 -397q540 0 876 303q316 287 414 795h-619q-53 -270 -229 -422
t-430 -152q-332 0 -524 259q-168 225 -205 606h860v512z" />
    <glyph glyph-name="guillemotleft" unicode="&#xab;" 
d="M1057 1524l-414 -365l414 -364v-480l-692 594v500l692 594v-479zM1937 1524l-413 -365l413 -364v-480l-692 594v500l692 594v-479z" />
    <glyph glyph-name="logicalnot" unicode="&#xac;" horiz-adv-x="2417" 
d="M1786 446v824h-1622v463h2085v-1287h-463z" />
    <glyph glyph-name="minus" unicode="&#xad;" horiz-adv-x="1380" 
d="M1270 1425v-536h-1155v536h1155z" />
    <glyph glyph-name="registered" unicode="&#xae;" horiz-adv-x="3052" 
d="M1270 1356v-709h-361v1684h627q348 0 508 -107q184 -123 184 -401q0 -221 -110 -328q-115 -111 -295 -111l430 -737h-426l-389 709h-168zM1270 1642h315q135 0 189 37q69 50 69 181q0 114 -90 151q-94 33 -233 33h-250v-402zM3097 1487q0 -713 -471 -1151
q-447 -414 -1098 -414q-656 0 -1098 410q-475 438 -475 1155q0 708 475 1151q447 414 1098 414t1093 -410q476 -438 476 -1155zM2646 1487q0 528 -328 864q-327 336 -790 336q-475 0 -799 -332q-323 -332 -323 -868q0 -533 323 -869q324 -335 799 -335q463 0 790 335
q328 336 328 869z" />
    <glyph glyph-name="macron" unicode="&#xaf;" horiz-adv-x="1147" 
d="M881 2974v-2974h-619v2974h619zM430 3785v-475h-520v475h520zM1237 3785v-475h-520v475h520z" />
    <glyph glyph-name="degree" unicode="&#xb0;" horiz-adv-x="1655" 
d="M238 2355q0 242 172 418t417 176q242 0 418 -172t176 -418q0 -245 -172 -417q-176 -177 -422 -177q-245 0 -417 172t-172 418zM827 2716q-143 0 -249 -107q-107 -106 -107 -254q0 -147 107 -250q102 -106 249 -106q148 0 254 102q107 103 107 254q0 148 -107 254
q-106 107 -254 107z" />
    <glyph glyph-name="plusminus" unicode="&#xb1;" horiz-adv-x="2417" 
d="M975 1577v520h463v-520h815v-463h-815v-520h-463v520h-811v463h811zM164 0v463h2089v-463h-2089z" />
    <glyph glyph-name="twosuperior" unicode="&#xb2;" horiz-adv-x="1147" 
d="M881 2974v-2974h-619v2974h619z" />
    <glyph glyph-name="threesuperior" unicode="&#xb3;" horiz-adv-x="1147" 
d="M283 2204h577v-2204h-577v2204zM860 2998v-536h-577v536h577z" />
    <glyph glyph-name="acute" unicode="&#xb4;" horiz-adv-x="1376" 
d="M1470 3101l-606 -602h-418l390 602h634z" />
    <glyph glyph-name="mu" unicode="&#xb5;" horiz-adv-x="2527" 
d="M2253 2204v-2204h-553v311q-98 -172 -242 -270q-147 -98 -278 -98q-222 0 -328 106v-905h-578v3060h578v-1368q0 -230 119 -328q94 -78 258 -78q172 0 291 102q155 136 155 402v1270h578z" />
    <glyph glyph-name="paragraph" unicode="&#xb6;" 
d="M885 -786v2224q-439 0 -676 192q-242 189 -242 524q0 410 287 590q250 156 725 156h1253v-3686h-463v3334h-421v-3334h-463z" />
    <glyph glyph-name="periodcentered" unicode="&#xb7;" horiz-adv-x="1147" 
d="M238 1049q0 139 98 237t237 98q140 0 238 -98t98 -237q0 -136 -94 -234q-98 -102 -242 -102q-147 0 -241 98t-94 238z" />
    <glyph glyph-name="cedilla" unicode="&#xb8;" 
d="M1565 647h594q-107 -364 -398 -549q-250 -155 -569 -155q-508 0 -782 262q-316 299 -316 942q0 524 295 831q275 283 762 283q414 0 676 -225q356 -307 356 -983v-107h-1495q0 -209 74 -332q123 -208 430 -208q127 0 233 65q107 61 140 176zM692 1323h897
q-24 246 -164 365q-114 98 -282 98q-201 0 -312 -119q-114 -123 -139 -344zM1008 3019v-475h-521v475h521zM1815 3019v-475h-521v475h521z" />
    <glyph glyph-name="onesuperior" unicode="&#xb9;" horiz-adv-x="4866" 
d="M2154 2974h578v-2974h-614l-1217 2126l-8 -2126h-578v2974h652l1179 -2065zM4620 1368q0 -274 -168 -467q-200 -229 -565 -229q-364 0 -561 225q-168 193 -168 471q0 274 168 467q197 229 561 229q365 0 565 -229q168 -193 168 -467zM4215 1368q0 172 -86 287
q-86 110 -242 110q-151 0 -237 -110q-86 -115 -86 -287q0 -168 86 -283q86 -114 237 -114q156 0 242 114q86 111 86 283zM3269 487h1241v-331h-1241v331z" />
    <glyph glyph-name="ordmasculine" unicode="&#xba;" 
d="M2159 803h-578q0 -111 -90 -230q-119 -155 -311 -155q-217 0 -324 160q-106 155 -106 393h544v377h-540q37 200 123 299q110 127 315 127q164 0 262 -95q78 -73 111 -200h573q-61 417 -373 622q-245 160 -573 160q-537 0 -803 -340q-246 -311 -246 -881q0 -442 193 -721
q258 -376 819 -376q524 0 795 344q184 233 209 516z" />
    <glyph glyph-name="guillemotright" unicode="&#xbb;" 
d="M1659 1159l-414 365v479l692 -594v-500l-692 -594v480zM778 1159l-413 365v479l692 -594v-500l-692 -594v480z" />
    <glyph glyph-name="onequarter" unicode="&#xbc;" horiz-adv-x="2417" 
d="M2253 815h-2089v463h2089v-463zM844 1901q0 151 110 262q107 106 258 106q148 0 258 -106q107 -111 107 -262q0 -140 -107 -250q-110 -115 -253 -115q-152 0 -263 106q-110 107 -110 259zM844 193q0 147 110 258q111 110 258 110q144 0 254 -110q111 -111 111 -258
q0 -140 -107 -250q-110 -115 -253 -115q-152 0 -263 106q-110 107 -110 259z" />
    <glyph glyph-name="onehalf" unicode="&#xbd;" horiz-adv-x="2417" 
d="M881 1049l-717 716l328 328l716 -717l717 717l328 -328l-717 -716l721 -717l-332 -328l-717 717l-712 -717l-332 328z" />
    <glyph glyph-name="threequarters" unicode="&#xbe;" horiz-adv-x="4137" 
d="M999 602v-602h-618v602h618zM2376 602v-602h-619v602h619zM3756 602v-602h-618v602h618z" />
    <glyph glyph-name="questiondown" unicode="&#xbf;" horiz-adv-x="1147" 
d="M283 2204h577v-2204h-577v2204zM430 3015v-475h-520v475h520zM1237 3015v-475h-520v475h520z" />
    <glyph glyph-name="Agrave" unicode="&#xc0;" horiz-adv-x="2990" 
d="M946 614l-209 -614h-651l1057 2974h717l1044 -2974h-672l-192 614h-1094zM1110 1126h795l-406 1176z" />
    <glyph glyph-name="Agrave" unicode="&#x410;" horiz-adv-x="2990" 
d="M946 614l-209 -614h-651l1057 2974h717l1044 -2974h-672l-192 614h-1094zM1110 1126h795l-406 1176z" />
    <glyph glyph-name="Aacute" unicode="&#xc1;" horiz-adv-x="2957" 
d="M934 2462v-643h774q442 0 721 -234q295 -250 295 -676q0 -434 -279 -671q-282 -238 -745 -238h-1385v2974h2188v-512h-1569zM1651 1307h-717v-795h717q209 0 331 106q123 107 123 295q0 181 -123 287q-122 107 -331 107z" />
    <glyph glyph-name="Aacute" unicode="&#x411;" horiz-adv-x="2957" 
d="M934 2462v-643h774q442 0 721 -234q295 -250 295 -676q0 -434 -279 -671q-282 -238 -745 -238h-1385v2974h2188v-512h-1569zM1651 1307h-717v-795h717q209 0 331 106q123 107 123 295q0 181 -123 287q-122 107 -331 107z" />
    <glyph glyph-name="Acircumflex" unicode="&#xc2;" horiz-adv-x="2990" 
d="M295 0v2974h1466q488 0 725 -262q185 -205 185 -496q0 -279 -131 -442q-78 -95 -230 -172q254 -95 365 -295q90 -164 90 -418q0 -320 -185 -537q-294 -352 -1007 -352h-1278zM913 1311v-799h754q234 0 356 106q123 107 123 332q0 176 -131 271q-131 90 -315 90h-787z
M913 2462v-652h725q201 0 312 74q127 86 127 258q0 176 -115 250q-115 70 -340 70h-709z" />
    <glyph glyph-name="Acircumflex" unicode="&#x412;" horiz-adv-x="2990" 
d="M295 0v2974h1466q488 0 725 -262q185 -205 185 -496q0 -279 -131 -442q-78 -95 -230 -172q254 -95 365 -295q90 -164 90 -418q0 -320 -185 -537q-294 -352 -1007 -352h-1278zM913 1311v-799h754q234 0 356 106q123 107 123 332q0 176 -131 271q-131 90 -315 90h-787z
M913 2462v-652h725q201 0 312 74q127 86 127 258q0 176 -115 250q-115 70 -340 70h-709z" />
    <glyph glyph-name="Atilde" unicode="&#xc3;" horiz-adv-x="2527" 
d="M930 2454v-2454h-619v2974h2159v-520h-1540z" />
    <glyph glyph-name="Atilde" unicode="&#x413;" horiz-adv-x="2527" 
d="M930 2454v-2454h-619v2974h2159v-520h-1540z" />
    <glyph glyph-name="Adieresis" unicode="&#xc4;" horiz-adv-x="3072" 
d="M332 512q200 307 270 647q66 336 66 930v881h2011v-2458h291v-1139h-578v627h-1749v-627h-577v1139h266zM946 512h1114v1946h-811v-410q0 -610 -57 -913q-57 -308 -246 -623z" />
    <glyph glyph-name="Adieresis" unicode="&#x414;" horiz-adv-x="3072" 
d="M332 512q200 307 270 647q66 336 66 930v881h2011v-2458h291v-1139h-578v627h-1749v-627h-577v1139h266zM946 512h1114v1946h-811v-410q0 -610 -57 -913q-57 -308 -246 -623z" />
    <glyph glyph-name="Aring" unicode="&#xc5;" horiz-adv-x="2757" 
d="M2499 2974v-525h-1577v-626h1445v-525h-1445v-774h1642v-524h-2261v2974h2196z" />
    <glyph glyph-name="Aring" unicode="&#x415;" horiz-adv-x="2757" 
d="M2499 2974v-525h-1577v-626h1445v-525h-1445v-774h1642v-524h-2261v2974h2196z" />
    <glyph glyph-name="AE" unicode="&#xc6;" horiz-adv-x="4256" 
d="M2433 0h-618v999l-238 316l-762 -1315h-754l1090 1724l-1012 1250h754l922 -1225v1225h618v-1217l926 1217h753l-1011 -1250l1089 -1724h-753l-762 1315l-242 -316v-999z" />
    <glyph glyph-name="AE" unicode="&#x416;" horiz-adv-x="4256" 
d="M2433 0h-618v999l-238 316l-762 -1315h-754l1090 1724l-1012 1250h754l922 -1225v1225h618v-1217l926 1217h753l-1011 -1250l1089 -1724h-753l-762 1315l-242 -316v-999z" />
    <glyph glyph-name="Ccedilla" unicode="&#xc7;" horiz-adv-x="2757" 
d="M1430 1311h-287v499h270q221 0 348 102.5t127 282.5q0 168 -135 259q-139 86 -393 86q-295 0 -430 -115q-139 -115 -160 -336h-582q0 393 291 664q324 299 869 299q565 0 876 -267q258 -221 258 -520q0 -274 -135 -446q-139 -172 -377 -242q266 -45 434 -238
q189 -213 189 -544q0 -373 -287 -607q-324 -266 -917 -266q-697 0 -1004 316q-242 245 -242 680h582q0 -226 123 -340q151 -144 520 -144q279 0 442 115q164 115 164 311q0 213 -155.5 332t-388.5 119z" />
    <glyph glyph-name="Ccedilla" unicode="&#x417;" horiz-adv-x="2757" 
d="M1430 1311h-287v499h270q221 0 348 102.5t127 282.5q0 168 -135 259q-139 86 -393 86q-295 0 -430 -115q-139 -115 -160 -336h-582q0 393 291 664q324 299 869 299q565 0 876 -267q258 -221 258 -520q0 -274 -135 -446q-139 -172 -377 -242q266 -45 434 -238
q189 -213 189 -544q0 -373 -287 -607q-324 -266 -917 -266q-697 0 -1004 316q-242 245 -242 680h582q0 -226 123 -340q151 -144 520 -144q279 0 442 115q164 115 164 311q0 213 -155.5 332t-388.5 119z" />
    <glyph glyph-name="Egrave" unicode="&#xc8;" horiz-adv-x="2990" 
d="M860 2974v-2073l1188 2073h696v-2974h-618v2118l-1221 -2118h-663v2974h618z" />
    <glyph glyph-name="Egrave" unicode="&#x418;" horiz-adv-x="2990" 
d="M860 2974v-2073l1188 2073h696v-2974h-618v2118l-1221 -2118h-663v2974h618z" />
    <glyph glyph-name="Eacute" unicode="&#xc9;" horiz-adv-x="2990" 
d="M860 2974v-2073l1188 2073h696v-2974h-618v2118l-1221 -2118h-663v2974h618zM1090 3838h-275q0 -274 217 -455q176 -147 459 -147q360 0 545 237q131 172 131 365h-275q-24 -127 -77 -184q-95 -103 -324 -103q-225 0 -324 103q-53 57 -77 184z" />
    <glyph glyph-name="Eacute" unicode="&#x419;" horiz-adv-x="2990" 
d="M860 2974v-2073l1188 2073h696v-2974h-618v2118l-1221 -2118h-663v2974h618zM1090 3838h-275q0 -274 217 -455q176 -147 459 -147q360 0 545 237q131 172 131 365h-275q-24 -127 -77 -184q-95 -103 -324 -103q-225 0 -324 103q-53 57 -77 184z" />
    <glyph glyph-name="Ecircumflex" unicode="&#xca;" horiz-adv-x="2986" 
d="M979 1008v-1008h-619v2974h619v-1209l1135 1209h802l-1212 -1217l1282 -1757h-799l-917 1307z" />
    <glyph glyph-name="Ecircumflex" unicode="&#x41a;" horiz-adv-x="2986" 
d="M979 1008v-1008h-619v2974h619v-1209l1135 1209h802l-1212 -1217l1282 -1757h-799l-917 1307z" />
    <glyph glyph-name="Edieresis" unicode="&#xcb;" horiz-adv-x="2961" 
d="M586 2974h2076v-2974h-618v2462h-840v-1270q0 -623 -164 -926q-188 -348 -610 -348q-217 0 -377 49v475q74 -24 185 -24q204 0 278 176q70 172 70 663v1717z" />
    <glyph glyph-name="Edieresis" unicode="&#x41b;" horiz-adv-x="2961" 
d="M586 2974h2076v-2974h-618v2462h-840v-1270q0 -623 -164 -926q-188 -348 -610 -348q-217 0 -377 49v475q74 -24 185 -24q204 0 278 176q70 172 70 663v1717z" />
    <glyph glyph-name="Igrave" unicode="&#xcc;" horiz-adv-x="3445" 
d="M3162 2974v-2974h-577v2486l-562 -2486h-610l-541 2486l-8 -2486h-577v2974h905l537 -2343l536 2343h897z" />
    <glyph glyph-name="Igrave" unicode="&#x41c;" horiz-adv-x="3445" 
d="M3162 2974v-2974h-577v2486l-562 -2486h-610l-541 2486l-8 -2486h-577v2974h905l537 -2343l536 2343h897z" />
    <glyph glyph-name="Iacute" unicode="&#xcd;" horiz-adv-x="2990" 
d="M2073 1335h-1160v-1335h-618v2974h618v-1127h1160v1127h618v-2974h-618v1335z" />
    <glyph glyph-name="Iacute" unicode="&#x41d;" horiz-adv-x="2990" 
d="M2073 1335h-1160v-1335h-618v2974h618v-1127h1160v1127h618v-2974h-618v1335z" />
    <glyph glyph-name="Icircumflex" unicode="&#xce;" horiz-adv-x="3219" 
d="M184 1487q0 639 279 1024q217 303 598 442q270 99 549 99q282 0 540 -95q377 -139 598 -442q287 -397 287 -1028q0 -639 -278 -1024q-217 -303 -598 -443q-271 -98 -549 -98q-283 0 -541 94q-377 140 -598 443q-287 397 -287 1028zM803 1487q0 -561 274 -832
q213 -209 533 -209q319 0 528 205q279 271 279 836q0 561 -275 831q-213 209 -532 209q-320 0 -529 -205q-278 -270 -278 -835z" />
    <glyph glyph-name="Icircumflex" unicode="&#x41e;" horiz-adv-x="3219" 
d="M184 1487q0 639 279 1024q217 303 598 442q270 99 549 99q282 0 540 -95q377 -139 598 -442q287 -397 287 -1028q0 -639 -278 -1024q-217 -303 -598 -443q-271 -98 -549 -98q-283 0 -541 94q-377 140 -598 443q-287 397 -287 1028zM803 1487q0 -561 274 -832
q213 -209 533 -209q319 0 528 205q279 271 279 836q0 561 -275 831q-213 209 -532 209q-320 0 -529 -205q-278 -270 -278 -835z" />
    <glyph glyph-name="Idieresis" unicode="&#xcf;" horiz-adv-x="2990" 
d="M2073 2462h-1160v-2462h-618v2974h2396v-2974h-618v2462z" />
    <glyph glyph-name="Idieresis" unicode="&#x41f;" horiz-adv-x="2990" 
d="M2073 2462h-1160v-2462h-618v2974h2396v-2974h-618v2462z" />
    <glyph glyph-name="Eth" unicode="&#xd0;" horiz-adv-x="2761" 
d="M934 1073v-1073h-619v2974h1360q430 0 676 -254q242 -258 242 -697q0 -315 -172 -573q-254 -377 -774 -377h-713zM934 1585h577q275 0 385 160q78 110 78 303q0 217 -127 315q-131 99 -417 99h-496v-877z" />
    <glyph glyph-name="Eth" unicode="&#x420;" horiz-adv-x="2761" 
d="M934 1073v-1073h-619v2974h1360q430 0 676 -254q242 -258 242 -697q0 -315 -172 -573q-254 -377 -774 -377h-713zM934 1585h577q275 0 385 160q78 110 78 303q0 217 -127 315q-131 99 -417 99h-496v-877z" />
    <glyph glyph-name="Ntilde" unicode="&#xd1;" horiz-adv-x="2990" 
d="M2830 1999h-618q-58 213 -156 323q-172 193 -504 193q-286 0 -479 -205q-254 -270 -254 -840q0 -438 168 -704q193 -307 565 -307q258 0 435 147q172 144 225 414h618q-94 -508 -409 -791q-340 -307 -881 -307q-614 0 -975 393q-381 414 -381 1168q0 753 394 1175
q368 394 970 394q611 0 975 -361q307 -307 307 -692z" />
    <glyph glyph-name="Ntilde" unicode="&#x421;" horiz-adv-x="2990" 
d="M2830 1999h-618q-58 213 -156 323q-172 193 -504 193q-286 0 -479 -205q-254 -270 -254 -840q0 -438 168 -704q193 -307 565 -307q258 0 435 147q172 144 225 414h618q-94 -508 -409 -791q-340 -307 -881 -307q-614 0 -975 393q-381 414 -381 1168q0 753 394 1175
q368 394 970 394q611 0 975 -361q307 -307 307 -692z" />
    <glyph glyph-name="Ograve" unicode="&#xd2;" horiz-adv-x="2527" 
d="M1573 2449v-2449h-619v2449h-897v525h2417v-525h-901z" />
    <glyph glyph-name="Ograve" unicode="&#x422;" horiz-adv-x="2527" 
d="M1573 2449v-2449h-619v2449h-897v525h2417v-525h-901z" />
    <glyph glyph-name="Oacute" unicode="&#xd3;" horiz-adv-x="2900" 
d="M2159 2974h700l-1094 -2515q-139 -320 -315 -439q-143 -98 -385 -98q-234 0 -381 37v528q107 -49 242 -49q123 0 184 45q57 41 135 189l-1208 2302h700l803 -1663z" />
    <glyph glyph-name="Oacute" unicode="&#x423;" horiz-adv-x="2900" 
d="M2159 2974h700l-1094 -2515q-139 -320 -315 -439q-143 -98 -385 -98q-234 0 -381 37v528q107 -49 242 -49q123 0 184 45q57 41 135 189l-1208 2302h700l803 -1663z" />
    <glyph glyph-name="Ocircumflex" unicode="&#xd4;" horiz-adv-x="3674" 
d="M2150 2974v-303q504 0 877 -250q479 -320 479 -934q0 -606 -479 -922q-377 -246 -877 -246v-319h-618v319q-504 0 -873 242q-479 316 -479 926t475 930q377 254 877 254v303h618zM799 1487q0 -373 245 -541q189 -127 488 -127v1352q-295 0 -483 -131q-250 -176 -250 -553
zM2888 1487q0 377 -250 553q-189 131 -488 131v-1352q304 0 488 123q250 168 250 545z" />
    <glyph glyph-name="Ocircumflex" unicode="&#x424;" horiz-adv-x="3674" 
d="M2150 2974v-303q504 0 877 -250q479 -320 479 -934q0 -606 -479 -922q-377 -246 -877 -246v-319h-618v319q-504 0 -873 242q-479 316 -479 926t475 930q377 254 877 254v303h618zM799 1487q0 -373 245 -541q189 -127 488 -127v1352q-295 0 -483 -131q-250 -176 -250 -553
zM2888 1487q0 377 -250 553q-189 131 -488 131v-1352q304 0 488 123q250 168 250 545z" />
    <glyph glyph-name="Otilde" unicode="&#xd5;" horiz-adv-x="2757" 
d="M1733 1544l966 -1544h-757l-562 1016l-598 -1016h-725l959 1520l-905 1454h741l528 -963l541 963h717z" />
    <glyph glyph-name="Otilde" unicode="&#x425;" horiz-adv-x="2757" 
d="M1733 1544l966 -1544h-757l-562 1016l-598 -1016h-725l959 1520l-905 1454h741l528 -963l541 963h717z" />
    <glyph glyph-name="Odieresis" unicode="&#xd6;" horiz-adv-x="3068" 
d="M913 512h1160v2462h618v-2462h295v-1143h-578v631h-2113v2974h618v-2462z" />
    <glyph glyph-name="Odieresis" unicode="&#x426;" horiz-adv-x="3068" 
d="M913 512h1160v2462h618v-2462h295v-1143h-578v631h-2113v2974h618v-2462z" />
    <glyph glyph-name="multiply" unicode="&#xd7;" horiz-adv-x="2904" 
d="M1982 0v1241q-172 -29 -356 -37q-188 -12 -426 -12q-397 0 -635 205q-274 237 -274 717v860h618v-860q0 -205 135 -308q119 -90 324 -90q135 0 299 12.5t315 32.5v1213h619v-2974h-619z" />
    <glyph glyph-name="multiply" unicode="&#x427;" horiz-adv-x="2904" 
d="M1982 0v1241q-172 -29 -356 -37q-188 -12 -426 -12q-397 0 -635 205q-274 237 -274 717v860h618v-860q0 -205 135 -308q119 -90 324 -90q135 0 299 12.5t315 32.5v1213h619v-2974h-619z" />
    <glyph glyph-name="Oslash" unicode="&#xd8;" horiz-adv-x="4022" 
d="M909 512h779v2462h618v-2462h782v2462h619v-2974h-3416v2974h618v-2462z" />
    <glyph glyph-name="Oslash" unicode="&#x428;" horiz-adv-x="4022" 
d="M909 512h779v2462h618v-2462h782v2462h619v-2974h-3416v2974h618v-2462z" />
    <glyph glyph-name="Ugrave" unicode="&#xd9;" horiz-adv-x="4100" 
d="M909 512h779v2462h618v-2462h778v2462h619v-2462h295v-1143h-578v631h-3129v2974h618v-2462z" />
    <glyph glyph-name="Ugrave" unicode="&#x429;" horiz-adv-x="4100" 
d="M909 512h779v2462h618v-2462h778v2462h619v-2462h295v-1143h-578v631h-3129v2974h618v-2462z" />
    <glyph glyph-name="Uacute" unicode="&#xda;" horiz-adv-x="3183" 
d="M1192 2974v-1155h758q442 0 721 -234q295 -250 295 -676q0 -434 -279 -671q-283 -238 -745 -238h-1369v2462h-659v512h1278zM1892 1307h-700v-795h700q205 0 332 111q123 106 123 295q0 180 -119 286q-123 103 -336 103z" />
    <glyph glyph-name="Uacute" unicode="&#x42a;" horiz-adv-x="3183" 
d="M1192 2974v-1155h758q442 0 721 -234q295 -250 295 -676q0 -434 -279 -671q-283 -238 -745 -238h-1369v2462h-659v512h1278zM1892 1307h-700v-795h700q205 0 332 111q123 106 123 295q0 180 -119 286q-123 103 -336 103z" />
    <glyph glyph-name="Ucircumflex" unicode="&#xdb;" horiz-adv-x="4162" 
d="M909 2974v-1155h758q442 0 729 -238q283 -242 283 -672t-279 -667q-282 -242 -741 -242h-1368v2974h618zM1610 1307h-701v-795h697q209 0 331 106q123 107 123 291q0 185 -118 291q-119 107 -332 107zM3838 2974v-2974h-619v2974h619z" />
    <glyph glyph-name="Ucircumflex" unicode="&#x42b;" horiz-adv-x="4162" 
d="M909 2974v-1155h758q442 0 729 -238q283 -242 283 -672t-279 -667q-282 -242 -741 -242h-1368v2974h618zM1610 1307h-701v-795h697q209 0 331 106q123 107 123 291q0 185 -118 291q-119 107 -332 107zM3838 2974v-2974h-619v2974h619z" />
    <glyph glyph-name="Udieresis" unicode="&#xdc;" horiz-adv-x="2916" 
d="M909 2974v-1155h758q442 0 721 -234q295 -250 295 -676q0 -434 -279 -671q-282 -238 -745 -238h-1368v2974h618zM1610 1307h-701v-795h701q209 0 332 106q122 107 122 291q0 185 -122 291q-123 107 -332 107z" />
    <glyph glyph-name="Udieresis" unicode="&#x42c;" horiz-adv-x="2916" 
d="M909 2974v-1155h758q442 0 721 -234q295 -250 295 -676q0 -434 -279 -671q-282 -238 -745 -238h-1368v2974h618zM1610 1307h-701v-795h701q209 0 332 106q122 107 122 291q0 185 -122 291q-123 107 -332 107z" />
    <glyph glyph-name="Yacute" unicode="&#xdd;" horiz-adv-x="2990" 
d="M1315 1823h835q-73 372 -295 557q-176 147 -405 147q-332 0 -504 -196q-102 -115 -160 -332h-618q0 381 307 688q365 365 975 365q602 0 975 -394q397 -422 397 -1175q0 -746 -385 -1164q-369 -397 -979 -397q-540 0 -876 303q-316 287 -414 795h618q54 -270 230 -422
t430 -152q332 0 524 259q168 225 205 606h-860v512z" />
    <glyph glyph-name="Yacute" unicode="&#x42d;" horiz-adv-x="2990" 
d="M1315 1823h835q-73 372 -295 557q-176 147 -405 147q-332 0 -504 -196q-102 -115 -160 -332h-618q0 381 307 688q365 365 975 365q602 0 975 -394q397 -422 397 -1175q0 -746 -385 -1164q-369 -397 -979 -397q-540 0 -876 303q-316 287 -414 795h618q54 -270 230 -422
t430 -152q332 0 524 259q168 225 205 606h-860v512z" />
    <glyph glyph-name="Thorn" unicode="&#xde;" horiz-adv-x="4137" 
d="M913 1847h451q66 484 328 783q204 237 512 344q221 78 442 78q258 0 496 -95q344 -139 548 -442q263 -393 263 -1028t-258 -1024q-201 -303 -553 -443q-246 -98 -496 -98q-258 0 -487 82q-349 123 -553 397q-267 357 -267 926h-426v-1327h-618v2974h618v-1127zM1958 1491
q0 -557 242 -832q188 -213 446 -213q266 0 446 205q242 275 242 836q0 557 -242 831q-184 209 -446 209t-442 -205q-246 -274 -246 -831z" />
    <glyph glyph-name="Thorn" unicode="&#x42e;" horiz-adv-x="4137" 
d="M913 1847h451q66 484 328 783q204 237 512 344q221 78 442 78q258 0 496 -95q344 -139 548 -442q263 -393 263 -1028t-258 -1024q-201 -303 -553 -443q-246 -98 -496 -98q-258 0 -487 82q-349 123 -553 397q-267 357 -267 926h-426v-1327h-618v2974h618v-1127zM1958 1491
q0 -557 242 -832q188 -213 446 -213q266 0 446 205q242 275 242 836q0 557 -242 831q-184 209 -446 209t-442 -205q-246 -274 -246 -831z" />
    <glyph glyph-name="germandbls" unicode="&#xdf;" horiz-adv-x="2986" 
d="M2671 2974v-2974h-619v1163h-459l-688 -1163h-725l725 1221q-291 94 -463 286q-209 230 -209 561q0 373 250 631q267 275 684 275h1504zM1335 1675h717v787h-766q-217 0 -336 -127q-98 -103 -98 -246q0 -188 123 -299q123 -115 360 -115z" />
    <glyph glyph-name="germandbls" unicode="&#x42f;" horiz-adv-x="2986" 
d="M2671 2974v-2974h-619v1163h-459l-688 -1163h-725l725 1221q-291 94 -463 286q-209 230 -209 561q0 373 250 631q267 275 684 275h1504zM1335 1675h717v787h-766q-217 0 -336 -127q-98 -103 -98 -246q0 -188 123 -299q123 -115 360 -115z" />
    <glyph glyph-name="agrave" unicode="&#xe0;" 
d="M2052 1622v-1192q0 -180 33 -250q33 -69 94 -90v-90h-623q-24 74 -32 131q-13 53 -21 131q-172 -176 -344 -246q-172 -73 -368 -73q-279 0 -459 147q-209 172 -209 496q0 360 307 569q283 193 721 193q176 0 258 53q78 49 78 139q0 160 -135 221q-82 37 -246 37
q-188 0 -279 -106q-61 -74 -77 -201h-557q45 459 344 639q221 131 639 131q446 0 679 -193q197 -163 197 -446zM1487 791v282q-45 -33 -131 -61q-90 -33 -271 -62q-184 -28 -270 -86q-115 -78 -115 -241q0 -140 91 -209q73 -58 180 -58q205 0 352 115q164 127 164 320z" />
    <glyph glyph-name="agrave" unicode="&#x430;" 
d="M2052 1622v-1192q0 -180 33 -250q33 -69 94 -90v-90h-623q-24 74 -32 131q-13 53 -21 131q-172 -176 -344 -246q-172 -73 -368 -73q-279 0 -459 147q-209 172 -209 496q0 360 307 569q283 193 721 193q176 0 258 53q78 49 78 139q0 160 -135 221q-82 37 -246 37
q-188 0 -279 -106q-61 -74 -77 -201h-557q45 459 344 639q221 131 639 131q446 0 679 -193q197 -163 197 -446zM1487 791v282q-45 -33 -131 -61q-90 -33 -271 -62q-184 -28 -270 -86q-115 -78 -115 -241q0 -140 91 -209q73 -58 180 -58q205 0 352 115q164 127 164 320z" />
    <glyph glyph-name="aacute" unicode="&#xe1;" horiz-adv-x="2527" 
d="M614 1659q103 205 279 328q192 135 422 135q446 0 717 -230q315 -266 315 -790q0 -561 -303 -869q-287 -290 -787 -290q-507 0 -790 311q-295 324 -295 917q0 705 188 1074q226 438 783 573q221 49 446 102q168 50 193 140h438q-49 -271 -229 -410q-181 -143 -553 -201
q-373 -57 -574 -217q-250 -196 -250 -573zM1278 1659q-266 0 -401 -193q-111 -159 -111 -417q0 -254 98 -414q127 -205 393 -205q263 0 394 205q102 164 102 418q0 250 -98 409q-123 197 -377 197z" />
    <glyph glyph-name="aacute" unicode="&#x431;" horiz-adv-x="2527" 
d="M614 1659q103 205 279 328q192 135 422 135q446 0 717 -230q315 -266 315 -790q0 -561 -303 -869q-287 -290 -787 -290q-507 0 -790 311q-295 324 -295 917q0 705 188 1074q226 438 783 573q221 49 446 102q168 50 193 140h438q-49 -271 -229 -410q-181 -143 -553 -201
q-373 -57 -574 -217q-250 -196 -250 -573zM1278 1659q-266 0 -401 -193q-111 -159 -111 -417q0 -254 98 -414q127 -205 393 -205q263 0 394 205q102 164 102 418q0 250 -98 409q-123 197 -377 197z" />
    <glyph glyph-name="acircumflex" unicode="&#xe2;" horiz-adv-x="2339" 
d="M270 0v2204h996q385 0 618 -148q234 -147 234 -422q0 -184 -115 -307t-295 -168q209 -49 324 -160q151 -147 151 -397q0 -303 -209 -450q-209 -152 -598 -152h-1106zM848 963v-566h426q172 0 250 58q94 69 94 225q0 283 -352 283h-418zM848 1806v-495h377q155 0 241 61
q86 62 86 189t-86 188q-86 57 -237 57h-381z" />
    <glyph glyph-name="acircumflex" unicode="&#x432;" horiz-adv-x="2339" 
d="M270 0v2204h996q385 0 618 -148q234 -147 234 -422q0 -184 -115 -307t-295 -168q209 -49 324 -160q151 -147 151 -397q0 -303 -209 -450q-209 -152 -598 -152h-1106zM848 963v-566h426q172 0 250 58q94 69 94 225q0 283 -352 283h-418zM848 1806v-495h377q155 0 241 61
q86 62 86 189t-86 188q-86 57 -237 57h-381z" />
    <glyph glyph-name="atilde" unicode="&#xe3;" horiz-adv-x="1835" 
d="M1765 2204v-463h-917v-1741h-578v2204h1495z" />
    <glyph glyph-name="atilde" unicode="&#x433;" horiz-adv-x="1835" 
d="M1765 2204v-463h-917v-1741h-578v2204h1495z" />
    <glyph glyph-name="adieresis" unicode="&#xe4;" horiz-adv-x="2609" 
d="M311 463q111 135 172 438q62 303 62 705v594h1700v-1737h266v-1057h-537v594h-1368v-594h-536v1057h241zM885 463h782v1274h-586v-267q0 -417 -49 -639q-49 -225 -147 -368z" />
    <glyph glyph-name="adieresis" unicode="&#x434;" horiz-adv-x="2609" 
d="M311 463q111 135 172 438q62 303 62 705v594h1700v-1737h266v-1057h-537v594h-1368v-594h-536v1057h241zM885 463h782v1274h-586v-267q0 -417 -49 -639q-49 -225 -147 -368z" />
    <glyph glyph-name="aring" unicode="&#xe5;" 
d="M1565 647h594q-107 -364 -398 -549q-250 -155 -569 -155q-508 0 -782 262q-316 299 -316 942q0 524 295 831q275 283 762 283t750 -262q282 -279 282 -836v-217h-1495q0 -209 74 -332q123 -208 430 -208q127 0 233 65q107 61 140 176zM692 1323h897q-24 246 -164 365
q-114 98 -282 98q-201 0 -312 -119q-114 -123 -139 -344z" />
    <glyph glyph-name="aring" unicode="&#x435;" 
d="M1565 647h594q-107 -364 -398 -549q-250 -155 -569 -155q-508 0 -782 262q-316 299 -316 942q0 524 295 831q275 283 762 283t750 -262q282 -279 282 -836v-217h-1495q0 -209 74 -332q123 -208 430 -208q127 0 233 65q107 61 140 176zM692 1323h897q-24 246 -164 365
q-114 98 -282 98q-201 0 -312 -119q-114 -123 -139 -344z" />
    <glyph glyph-name="ae" unicode="&#xe6;" horiz-adv-x="3346" 
d="M1389 0h577v721l168 180l492 -901h696l-787 1323l766 881h-684l-651 -820v820h-577v-811l-656 811h-680l766 -877l-782 -1327h696l488 905l168 -188v-717z" />
    <glyph glyph-name="ae" unicode="&#x436;" horiz-adv-x="3346" 
d="M1389 0h577v721l168 180l492 -901h696l-787 1323l766 881h-684l-651 -820v820h-577v-811l-656 811h-680l766 -877l-782 -1327h696l488 905l168 -188v-717z" />
    <glyph glyph-name="ccedilla" unicode="&#xe7;" 
d="M954 967v368h217q152 0 242 66q90 61 90 188q0 234 -368 234q-197 0 -299 -90q-86 -74 -107 -201h-557q74 364 328 549q250 180 651 180q393 0 651 -164t258 -414q0 -237 -139 -372q-123 -115 -352 -164q250 -33 393 -148q184 -143 184 -405q0 -332 -282 -500
q-258 -151 -701 -151q-463 0 -725 163q-311 193 -311 599h561q0 -156 107 -238q102 -86 340 -86q434 0 434 278q0 144 -94.5 226t-274.5 82h-246z" />
    <glyph glyph-name="ccedilla" unicode="&#x437;" 
d="M954 967v368h217q152 0 242 66q90 61 90 188q0 234 -368 234q-197 0 -299 -90q-86 -74 -107 -201h-557q74 364 328 549q250 180 651 180q393 0 651 -164t258 -414q0 -237 -139 -372q-123 -115 -352 -164q250 -33 393 -148q184 -143 184 -405q0 -332 -282 -500
q-258 -151 -701 -151q-463 0 -725 163q-311 193 -311 599h561q0 -156 107 -238q102 -86 340 -86q434 0 434 278q0 144 -94.5 226t-274.5 82h-246z" />
    <glyph glyph-name="egrave" unicode="&#xe8;" horiz-adv-x="2572" 
d="M2298 2204v-2204h-578v1401l-835 -1401h-619v2204h578v-1397l835 1397h619z" />
    <glyph glyph-name="egrave" unicode="&#x438;" horiz-adv-x="2572" 
d="M2298 2204v-2204h-578v1401l-835 -1401h-619v2204h578v-1397l835 1397h619z" />
    <glyph glyph-name="eacute" unicode="&#xe9;" horiz-adv-x="2597" 
d="M2322 2204v-2204h-577v1401l-836 -1401h-618v2204h577v-1397l836 1397h618zM1798 3105h270q-20 -226 -139 -373q-192 -233 -598 -233q-360 0 -536 237q-123 168 -123 369h274q25 -123 82 -185q102 -106 328 -106q188 0 274 41q139 65 168 250z" />
    <glyph glyph-name="eacute" unicode="&#x439;" horiz-adv-x="2597" 
d="M2322 2204v-2204h-577v1401l-836 -1401h-618v2204h577v-1397l836 1397h618zM1798 3105h270q-20 -226 -139 -373q-192 -233 -598 -233q-360 0 -536 237q-123 168 -123 369h274q25 -123 82 -185q102 -106 328 -106q188 0 274 41q139 65 168 250z" />
    <glyph glyph-name="ecircumflex" unicode="&#xea;" horiz-adv-x="2298" 
d="M864 696v-696h-577v2204h577v-836l729 836h709l-774 -852l794 -1352h-692l-524 946z" />
    <glyph glyph-name="ecircumflex" unicode="&#x43a;" horiz-adv-x="2298" 
d="M864 696v-696h-577v2204h577v-836l729 836h709l-774 -852l794 -1352h-692l-524 946z" />
    <glyph glyph-name="edieresis" unicode="&#xeb;" horiz-adv-x="2527" 
d="M496 2204h1773v-2204h-577v1741h-619v-680q0 -606 -176 -873q-156 -237 -483 -237q-82 0 -189 16q-106 13 -164 33v430q25 -16 172 -16q144 0 205 143q58 139 58 614v1033z" />
    <glyph glyph-name="edieresis" unicode="&#x43b;" horiz-adv-x="2527" 
d="M496 2204h1773v-2204h-577v1741h-619v-680q0 -606 -176 -873q-156 -237 -483 -237q-82 0 -189 16q-106 13 -164 33v430q25 -16 172 -16q144 0 205 143q58 139 58 614v1033z" />
    <glyph glyph-name="igrave" unicode="&#xec;" horiz-adv-x="3133" 
d="M1077 2204h-798v-2204h552v1352q0 73 -4 138.5t-12 119.5h16l521 -1610h426l520 1610h16q-8 -49 -12 -115q-4 -65 -4 -143v-1352h553v2204h-803l-475 -1499h-17z" />
    <glyph glyph-name="igrave" unicode="&#x43c;" horiz-adv-x="3133" 
d="M1077 2204h-798v-2204h552v1352q0 73 -4 138.5t-12 119.5h16l521 -1610h426l520 1610h16q-8 -49 -12 -115q-4 -65 -4 -143v-1352h553v2204h-803l-475 -1499h-17z" />
    <glyph glyph-name="iacute" unicode="&#xed;" horiz-adv-x="2527" 
d="M2253 2204v-2204h-578v918h-823v-918h-578v2204h578v-824h823v824h578z" />
    <glyph glyph-name="iacute" unicode="&#x43d;" horiz-adv-x="2527" 
d="M2253 2204v-2204h-578v918h-823v-918h-578v2204h578v-824h823v824h578z" />
    <glyph glyph-name="icircumflex" unicode="&#xee;" horiz-adv-x="2527" 
d="M1266 2261q479 0 782 -279q340 -311 340 -876t-340 -881q-303 -282 -782 -282q-480 0 -783 278q-344 316 -344 881t340 876q307 283 787 283zM1794 1102q0 278 -94 442q-131 230 -434 230t-435 -226q-98 -168 -98 -442q0 -365 164 -537q131 -139 369 -139q299 0 430 229
q98 172 98 443z" />
    <glyph glyph-name="icircumflex" unicode="&#x43e;" horiz-adv-x="2527" 
d="M1266 2261q479 0 782 -279q340 -311 340 -876t-340 -881q-303 -282 -782 -282q-480 0 -783 278q-344 316 -344 881t340 876q307 283 787 283zM1794 1102q0 278 -94 442q-131 230 -434 230t-435 -226q-98 -168 -98 -442q0 -365 164 -537q131 -139 369 -139q299 0 430 229
q98 172 98 443z" />
    <glyph glyph-name="idieresis" unicode="&#xef;" horiz-adv-x="2527" 
d="M2253 2204v-2204h-578v1741h-823v-1741h-578v2204h1979z" />
    <glyph glyph-name="idieresis" unicode="&#x43f;" horiz-adv-x="2527" 
d="M2253 2204v-2204h-578v1741h-823v-1741h-578v2204h1979z" />
    <glyph glyph-name="eth" unicode="&#xf0;" horiz-adv-x="2527" 
d="M811 1053q0 -271 115 -439q135 -196 393 -196q250 0 377 233q98 180 98 434q0 291 -106 467q-127 209 -385 209q-271 0 -394 -221q-98 -180 -98 -487zM811 2204v-320q119 176 225 254q172 123 439 123q389 0 639 -283q274 -311 274 -860q0 -495 -217 -815
q-246 -360 -709 -360q-266 0 -434 123q-98 73 -184 217l-13 4v-1143h-577v3060h557z" />
    <glyph glyph-name="eth" unicode="&#x440;" horiz-adv-x="2527" 
d="M811 1053q0 -271 115 -439q135 -196 393 -196q250 0 377 233q98 180 98 434q0 291 -106 467q-127 209 -385 209q-271 0 -394 -221q-98 -180 -98 -487zM811 2204v-320q119 176 225 254q172 123 439 123q389 0 639 -283q274 -311 274 -860q0 -495 -217 -815
q-246 -360 -709 -360q-266 0 -434 123q-98 73 -184 217l-13 4v-1143h-577v3060h557z" />
    <glyph glyph-name="ntilde" unicode="&#xf1;" 
d="M1581 803h582q-37 -406 -332 -647q-258 -213 -672 -213q-561 0 -819 372q-197 283 -197 725q0 566 246 877q270 344 807 344q352 0 614 -164q357 -225 357 -680h-586q-33 185 -147 279q-95 78 -238 78q-246 0 -365 -218q-94 -172 -94 -421q0 -295 58 -447
q102 -270 389 -270q192 0 307 151q90 119 90 234z" />
    <glyph glyph-name="ntilde" unicode="&#x441;" 
d="M1581 803h582q-37 -406 -332 -647q-258 -213 -672 -213q-561 0 -819 372q-197 283 -197 725q0 566 246 877q270 344 807 344q352 0 614 -164q357 -225 357 -680h-586q-33 185 -147 279q-95 78 -238 78q-246 0 -365 -218q-94 -172 -94 -421q0 -295 58 -447
q102 -270 389 -270q192 0 307 151q90 119 90 234z" />
    <glyph glyph-name="ograve" unicode="&#xf2;" horiz-adv-x="2040" 
d="M1303 0h-578v1741h-655v463h1892v-463h-659v-1741z" />
    <glyph glyph-name="ograve" unicode="&#x442;" horiz-adv-x="2040" 
d="M1303 0h-578v1741h-655v463h1892v-463h-659v-1741z" />
    <glyph glyph-name="oacute" unicode="&#xf3;" 
d="M1618 2204h614l-757 -2163q-201 -569 -332 -729q-164 -197 -520 -197l-263 8v463l111 -8q180 0 250 49q94 70 131 283l-811 2294h647l471 -1622z" />
    <glyph glyph-name="oacute" unicode="&#x443;" 
d="M1618 2204h614l-757 -2163q-201 -569 -332 -729q-164 -197 -520 -197l-263 8v463l111 -8q180 0 250 49q94 70 131 283l-811 2294h647l471 -1622z" />
    <glyph glyph-name="ocircumflex" unicode="&#xf4;" horiz-adv-x="3658" 
d="M2699 -57q-237 0 -393 123q-98 77 -180 217l-12 -1139h-578v1139q-94 -144 -184 -213q-164 -127 -398 -127q-422 0 -639 364q-188 316 -188 819q0 545 242 852q221 283 573 283q229 0 393 -123q111 -82 217 -254l9 1090h532v-1090q119 176 221 254q164 123 398 123
q352 0 573 -279q242 -307 242 -856q0 -508 -185 -819q-217 -364 -643 -364zM2093 1061q0 -279 94 -438q115 -197 365 -197q209 0 307 225q74 172 74 430q0 299 -78 475q-98 218 -307 218q-242 0 -357 -209q-98 -181 -98 -504zM1561 1061q0 328 -91 504q-106 209 -348 209
q-209 0 -315 -218q-86 -176 -86 -475q0 -262 70 -426q98 -229 311 -229q250 0 364 192q95 160 95 443z" />
    <glyph glyph-name="ocircumflex" unicode="&#x444;" horiz-adv-x="3658" 
d="M2699 -57q-237 0 -393 123q-98 77 -180 217l-12 -1139h-578v1139q-94 -144 -184 -213q-164 -127 -398 -127q-422 0 -639 364q-188 316 -188 819q0 545 242 852q221 283 573 283q229 0 393 -123q111 -82 217 -254l9 1090h532v-1090q119 176 221 254q164 123 398 123
q352 0 573 -279q242 -307 242 -856q0 -508 -185 -819q-217 -364 -643 -364zM2093 1061q0 -279 94 -438q115 -197 365 -197q209 0 307 225q74 172 74 430q0 299 -78 475q-98 218 -307 218q-242 0 -357 -209q-98 -181 -98 -504zM1561 1061q0 328 -91 504q-106 209 -348 209
q-209 0 -315 -218q-86 -176 -86 -475q0 -262 70 -426q98 -229 311 -229q250 0 364 192q95 160 95 443z" />
    <glyph glyph-name="otilde" unicode="&#xf5;" 
d="M1491 1122l750 -1122h-717l-381 664l-381 -664h-701l750 1122l-721 1082h705l372 -643l365 643h684z" />
    <glyph glyph-name="otilde" unicode="&#x445;" 
d="M1491 1122l750 -1122h-717l-381 664l-381 -664h-701l750 1122l-721 1082h705l372 -643l365 643h684z" />
    <glyph glyph-name="odieresis" unicode="&#xf6;" horiz-adv-x="2572" 
d="M848 463h827v1741h578v-1741h262v-1057h-537v594h-1708v2204h578v-1741z" />
    <glyph glyph-name="odieresis" unicode="&#x446;" horiz-adv-x="2572" 
d="M848 463h827v1741h578v-1741h262v-1057h-537v594h-1708v2204h578v-1741z" />
    <glyph glyph-name="divide" unicode="&#xf7;" horiz-adv-x="2494" 
d="M2220 2204v-2204h-578v844q-315 -70 -622 -70q-348 0 -537 172q-209 193 -209 598v660h578v-643q0 -172 123 -246q90 -53 254 -53q295 0 413 32v910h578z" />
    <glyph glyph-name="divide" unicode="&#x447;" horiz-adv-x="2494" 
d="M2220 2204v-2204h-578v844q-315 -70 -622 -70q-348 0 -537 172q-209 193 -209 598v660h578v-643q0 -172 123 -246q90 -53 254 -53q295 0 413 32v910h578z" />
    <glyph glyph-name="oslash" unicode="&#xf8;" horiz-adv-x="3674" 
d="M840 2204h-578v-2204h3150v2204h-578v-1741h-708v1741h-578v-1741h-708v1741z" />
    <glyph glyph-name="oslash" unicode="&#x448;" horiz-adv-x="3674" 
d="M840 2204h-578v-2204h3150v2204h-578v-1741h-708v1741h-578v-1741h-708v1741z" />
    <glyph glyph-name="ugrave" unicode="&#xf9;" horiz-adv-x="3764" 
d="M266 2204h578v-1741h708v1741h578v-1741h709v1741h577v-1741h266v-1057h-536v594h-2880v2204z" />
    <glyph glyph-name="ugrave" unicode="&#x449;" horiz-adv-x="3764" 
d="M266 2204h578v-1741h708v1741h578v-1741h709v1741h577v-1741h266v-1057h-536v594h-2880v2204z" />
    <glyph glyph-name="uacute" unicode="&#xfa;" horiz-adv-x="2482" 
d="M995 2204v-852h406q409 0 647 -181q238 -180 238 -520q0 -319 -250 -491q-234 -160 -627 -160h-991v1741h-426v463h1003zM1389 954h-394v-557h394q331 0 331 267q0 143 -86 216.5t-245 73.5z" />
    <glyph glyph-name="uacute" unicode="&#x44a;" horiz-adv-x="2482" 
d="M995 2204v-852h406q409 0 647 -181q238 -180 238 -520q0 -319 -250 -491q-234 -160 -627 -160h-991v1741h-426v463h1003zM1389 954h-394v-557h394q331 0 331 267q0 143 -86 216.5t-245 73.5z" />
    <glyph glyph-name="ucircumflex" unicode="&#xfb;" horiz-adv-x="3387" 
d="M856 2204v-852h401q414 0 652 -181q237 -180 237 -520q0 -319 -254 -491q-233 -160 -626 -160h-987v2204h577zM1245 954h-389v-557h389q336 0 336 267q0 139 -86 217q-90 73 -250 73zM3121 2204v-2204h-577v2204h577z" />
    <glyph glyph-name="ucircumflex" unicode="&#x44b;" horiz-adv-x="3387" 
d="M856 2204v-852h401q414 0 652 -181q237 -180 237 -520q0 -319 -254 -491q-233 -160 -626 -160h-987v2204h577zM1245 954h-389v-557h389q336 0 336 267q0 139 -86 217q-90 73 -250 73zM3121 2204v-2204h-577v2204h577z" />
    <glyph glyph-name="udieresis" unicode="&#xfc;" horiz-adv-x="2359" 
d="M872 2204v-852h402q414 0 651 -181q238 -180 238 -520q0 -319 -254 -491q-234 -160 -627 -160h-987v2204h577zM1262 954h-390v-557h390q335 0 335 267q0 143 -86 216.5t-249 73.5z" />
    <glyph glyph-name="udieresis" unicode="&#x44c;" horiz-adv-x="2359" 
d="M872 2204v-852h402q414 0 651 -181q238 -180 238 -520q0 -319 -254 -491q-234 -160 -627 -160h-987v2204h577zM1262 954h-390v-557h390q335 0 335 267q0 143 -86 216.5t-249 73.5z" />
    <glyph glyph-name="yacute" unicode="&#xfd;" 
d="M143 803h578q0 -111 94 -230q123 -155 315 -155q218 0 332 168q103 151 103 397h-582v377h582q-45 221 -127 315q-99 111 -308 111q-167 0 -274 -98q-86 -78 -119 -209h-573q82 405 393 614q254 168 573 168q512 0 779 -340q250 -319 250 -881q0 -434 -201 -721
q-266 -376 -815 -376q-525 0 -795 344q-180 229 -205 516z" />
    <glyph glyph-name="yacute" unicode="&#x44d;" 
d="M143 803h578q0 -111 94 -230q123 -155 315 -155q218 0 332 168q103 151 103 397h-582v377h582q-45 221 -127 315q-99 111 -308 111q-167 0 -274 -98q-86 -78 -119 -209h-573q82 405 393 614q254 168 573 168q512 0 779 -340q250 -319 250 -881q0 -434 -201 -721
q-266 -376 -815 -376q-525 0 -795 344q-180 229 -205 516z" />
    <glyph glyph-name="thorn" unicode="&#xfe;" horiz-adv-x="3445" 
d="M848 1331h401q62 451 361 701q274 229 659 229q434 0 717 -279q319 -315 319 -880t-315 -877q-287 -282 -721 -282q-381 0 -655 225q-303 250 -365 700h-401v-868h-578v2204h578v-873zM2720 1102q0 266 -90 442q-115 230 -361 230q-241 0 -360 -230q-90 -176 -90 -442
t90 -443q114 -229 360 -229q242 0 361 229q90 177 90 443z" />
    <glyph glyph-name="thorn" unicode="&#x44e;" horiz-adv-x="3445" 
d="M848 1331h401q62 451 361 701q274 229 659 229q434 0 717 -279q319 -315 319 -880t-315 -877q-287 -282 -721 -282q-381 0 -655 225q-303 250 -365 700h-401v-868h-578v2204h578v-873zM2720 1102q0 266 -90 442q-115 230 -361 230q-241 0 -360 -230q-90 -176 -90 -442
t90 -443q114 -229 360 -229q242 0 361 229q90 177 90 443z" />
    <glyph glyph-name="ydieresis" unicode="&#xff;" horiz-adv-x="2335" 
d="M799 0h-672l537 922q-193 45 -324 172q-180 176 -180 446q0 664 872 664h1036v-2204h-577v868h-250zM1065 1249h426v557h-426q-147 0 -242 -73q-98 -78 -98 -205q0 -139 90 -209t250 -70z" />
    <glyph glyph-name="ydieresis" unicode="&#x44f;" horiz-adv-x="2335" 
d="M799 0h-672l537 922q-193 45 -324 172q-180 176 -180 446q0 664 872 664h1036v-2204h-577v868h-250zM1065 1249h426v557h-426q-147 0 -242 -73q-98 -78 -98 -205q0 -139 90 -209t250 -70z" />
    <glyph glyph-name="florin" unicode="&#x192;" 
d="M1966 1974v-401h-553l-246 -1483q-61 -385 -188 -602q-209 -356 -602 -356q-144 0 -418 86l102 463q78 -50 119 -62q37 -12 103 -12q143 0 204 127q50 102 111 459l233 1380h-503v401h569l78 361q65 299 180 454q193 263 557 263q94 0 197 -17q102 -20 229 -61l-102 -451
q-54 33 -111 49q-61 17 -115 17q-118 0 -188 -70t-90 -180l-62 -365h496z" />
    <glyph glyph-name="circumflex" unicode="&#x2c6;" horiz-adv-x="1380" 
d="M950 3101l471 -602h-467l-266 340l-262 -340h-467l471 602h520z" />
    <glyph glyph-name="tilde" unicode="&#x2dc;" horiz-adv-x="1380" 
d="M1180 3052h270q-29 -173 -102 -295q-127 -205 -349 -205q-118 0 -335 78q-222 73 -275 73q-94 0 -147 -73q-33 -45 -45 -107h-267q29 201 140 340q135 172 360 172q94 0 287 -74q192 -77 270 -77q90 0 135 49q41 45 58 119z" />
    <glyph glyph-name="endash" unicode="&#x2013;" 
d="M2302 1376v-438h-2302v438h2302z" />
    <glyph glyph-name="emdash" unicode="&#x2014;" horiz-adv-x="4137" 
d="M4137 1376v-438h-4137v438h4137z" />
    <glyph glyph-name="quoteleft" unicode="&#x2018;" horiz-adv-x="1147" 
d="M860 2404v-524h-577v422q0 348 192 528q135 127 377 176v-208q-184 -58 -254 -168q-53 -86 -53 -226h315z" />
    <glyph glyph-name="quoteright" unicode="&#x2019;" horiz-adv-x="1147" 
d="M283 2445v525h577v-418q0 -344 -192 -529q-140 -131 -373 -180v209q184 57 254 168q53 86 53 225h-319z" />
    <glyph glyph-name="quotesinglbase" unicode="&#x201a;" horiz-adv-x="1147" 
d="M283 0v524h577v-422q0 -348 -192 -528q-136 -127 -373 -176v209q184 57 254 168q53 86 53 225h-319z" />
    <glyph glyph-name="quotedblleft" unicode="&#x201c;" horiz-adv-x="2064" 
d="M840 2404v-524h-578v422q0 348 193 528q135 127 376 176v-208q-184 -58 -253 -168q-54 -86 -54 -226h316zM1798 2404v-524h-577v422q0 348 192 528q135 127 377 176v-208q-184 -58 -254 -168q-53 -86 -53 -226h315z" />
    <glyph glyph-name="quotedblright" unicode="&#x201d;" horiz-adv-x="2064" 
d="M262 2445v525h578v-418q0 -344 -193 -529q-139 -131 -373 -180v209q185 57 254 168q54 86 54 225h-320zM1221 2445v525h577v-418q0 -344 -192 -529q-140 -131 -373 -180v209q184 57 254 168q53 86 53 225h-319z" />
    <glyph glyph-name="quotedblbase" unicode="&#x201e;" horiz-adv-x="2064" 
d="M262 0v524h578v-418q0 -344 -193 -528q-139 -131 -373 -180v209q185 57 254 168q54 86 54 225h-320zM1221 0v524h577v-418q0 -344 -192 -528q-140 -131 -373 -180v209q184 57 254 168q53 86 53 225h-319z" />
    <glyph glyph-name="dagger" unicode="&#x2020;" 
d="M2150 2064v-462h-725v-2307h-553v2307h-720v462h720v906h553v-906h725z" />
    <glyph glyph-name="daggerdbl" unicode="&#x2021;" 
d="M2150 2105v-463h-729v-987h729v-462h-729v-898h-553v898h-716v462h716v987h-716v463h716v865h553v-865h729z" />
    <glyph glyph-name="bullet" unicode="&#x2022;" horiz-adv-x="1450" 
d="M41 1491q0 283 201 479q200 197 487 197t483 -193q193 -196 193 -483t-197 -487q-196 -201 -483 -201t-483 201q-201 196 -201 487z" />
    <glyph glyph-name="ellipsis" unicode="&#x2026;" horiz-adv-x="4137" 
d="M999 602v-602h-618v602h618zM2376 602v-602h-619v602h619zM3756 602v-602h-618v602h618z" />
    <glyph glyph-name="perthousand" unicode="&#x2030;" horiz-adv-x="4137" 
d="M1307 614q0 279 196 476q193 192 471 192q271 0 467 -197q197 -196 197 -471q0 -274 -193 -471q-192 -196 -471 -196q-278 0 -471 196q-196 193 -196 471zM1720 614q0 -106 74 -180t180 -74q103 0 176 74q74 74 74 180q0 107 -74 181q-73 73 -176 73q-106 0 -180 -73.5
t-74 -180.5zM2818 614q0 275 193 471q192 197 471 197q274 0 471 -197q196 -196 196 -471q0 -278 -192 -471q-197 -196 -475 -196q-275 0 -467 196q-197 193 -197 471zM3232 614q0 -106 73 -180q74 -74 177 -74q106 0 180 74t74 180q0 107 -74 180.5t-180 73.5
q-103 0 -177 -73q-73 -74 -73 -181zM-12 2269q0 279 196 475q193 193 471 193q271 0 467 -197q197 -196 197 -471q0 -274 -193 -471q-192 -196 -471 -196q-278 0 -471 196q-196 193 -196 471zM401 2269q0 -106 74 -180t180 -74q103 0 176 74q74 74 74 180q0 107 -74 180
q-73 74 -176 74q-106 0 -180 -74q-74 -73 -74 -180zM332 -82l1646 3019h308l-1647 -3019h-307z" />
    <glyph glyph-name="guilsinglleft" unicode="&#x2039;" horiz-adv-x="1380" 
d="M1036 2003v-479l-413 -365l413 -364v-480l-692 594v500z" />
    <glyph glyph-name="guilsinglright" unicode="&#x203a;" horiz-adv-x="1380" 
d="M758 1159l-414 365v479l692 -594v-500l-692 -594v480z" />
    <glyph glyph-name="trademark" unicode="&#x2122;" horiz-adv-x="4137" 
d="M2548 2970l389 -1033l385 1033h631v-1704h-439v1163h-20l-393 -1163h-332l-406 1163l-8 -1163h-438v1704h631zM1593 2970v-353h-475v-1351h-463v1351h-475v353h1413z" />
    <glyph glyph-name="dotoperator" unicode="&#x2219;" horiz-adv-x="1147" 
d="M238 1049q0 139 98 237t237 98q140 0 238 -98t98 -237q0 -136 -94 -234q-98 -102 -242 -102q-147 0 -241 98t-94 238z" />
    </font>
</defs>
</svg>
